<svg xmlns="http://www.w3.org/2000/svg" width="410" height="403" fill="none"><g clip-path="url(#a)"><path fill="url(#b)" fill-opacity=".15" fill-rule="evenodd" d="m443.083 402.736 476.358-402-.645-.764-476.358 402zm-7.11 0 476.358-402-.645-.764-476.358 402zm469.249-402-476.359 402-.645-.764 476.359-402zm-483.469 402 476.359-402-.645-.764-476.359 402zm469.249-402-476.359 402-.644-.764 476.358-402zm-483.468 402 476.358-402-.645-.764-476.358 402zm469.248-402-476.358 402-.645-.764 476.358-402zm-483.468 402 476.358-402-.645-.764-476.358 402zm469.249-402-476.359 402-.645-.764 476.359-402zm-483.469 402 476.359-402-.645-.764-476.359 402zm469.249-402-476.359 402-.644-.764 476.358-402zm-483.468 402 476.358-402-.645-.764-476.358 402zm469.248-402-476.358 402-.645-.764 476.358-402zm-483.468 402 476.358-402-.645-.764-476.358 402zm469.249-402-476.359 402-.645-.764 476.359-402zm-483.469 402 476.359-402-.645-.764-476.359 402zm469.249-402-476.358 402-.645-.764 476.358-402zm-483.468 402 476.358-402-.645-.764-476.358 402zm469.248-402-476.358 402-.645-.764 476.358-402zm-483.468 402 476.358-402-.644-.764-476.359 402zm469.249-402-476.359 402-.645-.764L776.6-.028zm-483.469 402 476.359-402-.645-.764-476.359 402zm469.249-402-476.358 402-.645-.764 476.358-402zm-483.468 402 476.358-402-.645-.764-476.358 402zm469.248-402-476.358 402-.645-.764 476.358-402zm-483.468 402 476.358-402-.644-.764-476.359 402zm469.249-402-476.359 402-.645-.764 476.359-402zm-483.469 402 476.359-402-.645-.764-476.358 402zm469.249-402-476.358 402-.645-.764 476.358-402zm-483.468 402 476.358-402-.645-.764-476.358 402zm469.248-402-476.358 402-.645-.764 476.358-402zm-483.468 402 476.359-402-.645-.764-476.359 402zm469.249-402-476.359 402-.645-.764 476.359-402zm-483.469 402 476.359-402-.645-.764-476.358 402zm469.249-402-476.358 402-.645-.764 476.358-402zm-483.468 402 476.358-402-.645-.764-476.358 402zm469.248-402-476.358 402-.645-.764 476.358-402zm-483.468 402 476.359-402-.645-.764-476.359 402zm469.249-402-476.359 402-.645-.764 476.359-402zm-483.468 402 476.358-402-.645-.764-476.358 402zm469.248-402-476.358 402-.645-.764 476.358-402zm-483.468 402 476.358-402-.645-.764-476.358 402zm469.248-402-476.358 402-.645-.764 476.359-402zm-483.468 402 476.359-402-.645-.764-476.359 402zm469.249-402-476.359 402-.645-.764 476.359-402zm-483.468 402 476.358-402-.645-.764-476.358 402zm469.248-402-476.358 402-.645-.764 476.358-402zm-483.468 402 476.358-402-.645-.764-476.358 402zm469.248-402-476.358 402-.645-.764 476.359-402zm-483.468 402L571.06.736l-.645-.764-476.359 402zM563.95.736l-476.359 402-.644-.764 476.358-402zm-483.468 402L556.84.736l-.645-.764-476.358 402zM549.73.736l-476.358 402-.645-.764 476.358-402zm-483.468 402L542.62.736l-.645-.764-476.358 402zm469.249-402-476.359 402-.645-.764 476.359-402zm-483.469 402 476.359-402-.645-.764-476.359 402zm469.249-402-476.359 402-.644-.764 476.358-402zm-483.468 402L514.18.736l-.645-.764-476.358 402 .645.764zM507.07.736l-476.358 402-.645-.764 476.358-402zm-483.468 402L499.96.736l-.645-.764-476.358 402zm469.249-402-476.359 402-.645-.764 476.359-402zm-483.469 402 476.359-402-.645-.764-476.359 402zm469.249-402-476.358 402-.645-.764 476.358-402zm-483.468 402 476.358-402-.645-.764-476.358 402zm469.248-402-476.358 402-.645-.764 476.358-402zm-483.468 402 476.358-402-.645-.764-476.358 402zm469.249-402-476.359 402-.645-.764 476.359-402zm-483.469 402 476.359-402-.645-.764-476.358 402zm469.249-402-476.358 402-.645-.764 476.358-402zm-483.468 402 476.358-402-.645-.764-476.358 402zm469.248-402-476.358 402-.645-.764 476.358-402zm-483.468 402 476.358-402-.644-.764-476.359 402zm469.249-402-476.359 402-.645-.764 476.359-402zm-483.469 402 476.359-402-.645-.764-476.358 402zm469.249-402-476.358 402-.645-.764 476.358-402zm-483.468 402 476.358-402-.645-.764-476.358 402zm469.248-402-476.358 402-.645-.764 476.358-402zm-483.468 402 476.358-402-.644-.764-476.359 402zm469.249-402-476.359 402-.645-.764 476.359-402zm-483.469 402 476.359-402-.645-.764-476.359 402zm469.249-402-476.358 402-.645-.764 476.358-402zm-483.468 402 476.358-402-.645-.764-476.358 402zm469.248-402-476.358 402-.645-.764 476.358-402zm-483.468 402 476.359-402-.645-.764-476.359 402zm469.249-402-476.359 402-.645-.764 476.359-402zm-483.468 402 476.358-402-.645-.764-476.358 402zm469.248-402-476.358 402-.645-.764 476.358-402zm-483.468 402 476.358-402-.645-.764-476.358 402zm469.248-402-476.358 402-.645-.764 476.358-402zm-483.468 402 476.359-402-.645-.764-476.359 402zm469.249-402-476.359 402-.645-.764 476.359-402zm-483.468 402 476.358-402-.645-.764-476.358 402zm469.248-402-476.358 402-.645-.764 476.358-402zm-483.468 402 476.358-402-.645-.764-476.358 402zm469.248-402-476.358 402-.645-.764 476.359-402zm-483.468 402 476.359-402-.645-.764-476.359 402zm469.249-402-476.359 402-.644-.764 476.358-402zm-483.468 402 476.358-402-.645-.764-476.358 402zm469.248-402-476.358 402-.645-.764 476.358-402zm-483.468 402 476.358-402-.645-.764-476.358 402zm469.248-402-476.358 402-.645-.764 476.359-402zm-483.468 402 476.359-402-.645-.764-476.359 402zm469.249-402-476.359 402-.645-.764 476.359-402zm-483.468 402 476.358-402-.645-.764-476.358 402zm469.248-402-476.358 402-.645-.764 476.358-402zm-483.468 402 476.358-402-.645-.764-476.358 402zM165.8.736l-476.359 402-.645-.764 476.359-402zm-483.469 402L158.69.736l-.645-.764-476.359 402zM151.58.736l-476.359 402-.644-.764 476.358-402zm-483.468 402L144.47.736l-.645-.764-476.358 402zM137.36.736l-476.358 402-.645-.764 476.358-402zm-483.468 402L130.25.736l-.645-.764-476.358 402zm469.249-402-476.359 402-.645-.764 476.359-402zm-483.469 402 476.359-402-.645-.764-476.359 402zm469.249-402-476.358 402-.645-.764 476.358-402zm-483.468 402 476.358-402-.645-.764-476.358 402zM94.701.736l-476.358 402-.645-.764 476.358-402zm-483.468 402L87.591.736l-.644-.764-476.359 402zM80.482.736l-476.359 402-.645-.764 476.359-402zm-483.469 402L73.372.736l-.645-.764-476.359 402zM66.262.736l-476.358 402-.645-.764 476.358-402zm-483.468 402L59.152.736l-.645-.764-476.358 402zM52.042.736l-476.358 402-.645-.764 476.358-402zm-483.468 402L44.932.736l-.645-.764-476.358 402zM37.823.736l-476.359 402-.645-.764 476.359-402zm-483.469 402L30.713.736l-.645-.764-476.359 402zM23.603.736l-476.358 402-.645-.764 476.358-402zm-483.468 402L16.493.736l-.645-.764-476.358 402zM9.383.736l-476.358 402-.645-.764L8.738-.028zm-483.468 402L2.273.736 1.63-.028l-476.359 402zM-4.836.736l-476.359 402-.645-.764 476.359-402zm-483.469 402 476.359-402-.645-.764-476.358 402zm469.249-402-476.358 402-.645-.764 476.358-402zm-483.468 402 476.358-402-.645-.764-476.358 402zm469.248-402-476.358 402-.645-.764 476.358-402z" clip-rule="evenodd"/></g><defs><linearGradient id="b" x1="-510.279" x2="919.441" y1="201.354" y2="201.354" gradientUnits="userSpaceOnUse"><stop offset=".31" stop-color="#fff" stop-opacity="0"/><stop offset=".859" stop-color="#fff"/></linearGradient><clipPath id="a"><path fill="#fff" d="M410 0H0v403h410z"/></clipPath></defs></svg>