<svg xmlns="http://www.w3.org/2000/svg" width="550" height="482" fill="none"><g clip-path="url(#a)"><path stroke="url(#b)" stroke-opacity=".1" d="M18.53 0H0v19.25M18.53 0v19.25m0-19.25h18.529m-18.53 19.25H0m18.53 0h18.529m-18.53 0V38.5M0 19.25V38.5M37.059 0v19.25m0-19.25h18.53m-18.53 19.25h18.53m-18.53 0V38.5M55.589 0v19.25m0-19.25h18.529m-18.53 19.25h18.53m-18.53 0V38.5M74.118 0v19.25m0-19.25h18.53m-18.53 19.25h18.53m-18.53 0V38.5M92.648 0v19.25m0-19.25h18.528M92.647 19.25h18.529m-18.529 0V38.5M111.176 0v19.25m0-19.25h18.53m-18.53 19.25h18.53m-18.53 0V38.5M129.706 0v19.25m0-19.25h18.529m-18.529 19.25h18.529m-18.529 0V38.5M148.235 0v19.25m0-19.25h18.53m-18.53 19.25h18.53m-18.53 0V38.5M166.765 0v19.25m0-19.25h18.529m-18.529 19.25h18.529m-18.529 0V38.5M185.294 0v19.25m0-19.25h18.53m-18.53 19.25h18.53m-18.53 0V38.5M203.824 0v19.25m0-19.25h18.529m-18.529 19.25h18.529m-18.529 0V38.5M222.353 0v19.25m0-19.25h18.529m-18.529 19.25h18.529m-18.529 0V38.5M240.882 0v19.25m0-19.25h18.53m-18.53 19.25h18.53m-18.53 0V38.5M259.412 0v19.25m0-19.25h18.529m-18.529 19.25h18.529m-18.529 0V38.5M277.941 0v19.25m0-19.25h18.53m-18.53 19.25h18.53m-18.53 0V38.5M296.471 0v19.25m0-19.25H315v19.25m-18.529 0H315m-18.529 0V38.5M315 19.25V38.5m-296.47 0H0m18.53 0h18.529m-18.53 0v19.25M0 38.5v19.25M37.059 38.5h18.53m-18.53 0v19.25m18.53-19.25h18.529m-18.53 0v19.25m18.53-19.25h18.53m-18.53 0v19.25m18.53-19.25h18.528m-18.529 0v19.25m18.529-19.25h18.53m-18.53 0v19.25m18.53-19.25h18.529m-18.529 0v19.25m18.529-19.25h18.53m-18.53 0v19.25m18.53-19.25h18.529m-18.529 0v19.25m18.529-19.25h18.53m-18.53 0v19.25m18.53-19.25h18.529m-18.529 0v19.25m18.529-19.25h18.529m-18.529 0v19.25m18.529-19.25h18.53m-18.53 0v19.25m18.53-19.25h18.529m-18.529 0v19.25m18.529-19.25h18.53m-18.53 0v19.25m18.53-19.25H315m-18.529 0v19.25M315 38.5v19.25m-296.47 0H0m18.53 0h18.529m-18.53 0V77M0 57.75V77m37.059-19.25h18.53m-18.53 0V77m18.53-19.25h18.529m-18.53 0V77m18.53-19.25h18.53m-18.53 0V77m18.53-19.25h18.528m-18.529 0V77m18.529-19.25h18.53m-18.53 0V77m18.53-19.25h18.529m-18.529 0V77m18.529-19.25h18.53m-18.53 0V77m18.53-19.25h18.529m-18.529 0V77m18.529-19.25h18.53m-18.53 0V77m18.53-19.25h18.529m-18.529 0V77m18.529-19.25h18.529m-18.529 0V77m18.529-19.25h18.53m-18.53 0V77m18.53-19.25h18.529m-18.529 0V77m18.529-19.25h18.53m-18.53 0V77m18.53-19.25H315m-18.529 0V77M315 57.75V77M18.53 77H0m18.53 0h18.529m-18.53 0v19.25M0 77v19.25M37.059 77h18.53m-18.53 0v19.25M55.589 77h18.529m-18.53 0v19.25M74.118 77h18.53m-18.53 0v19.25M92.648 77h18.528m-18.529 0v19.25M111.176 77h18.53m-18.53 0v19.25M129.706 77h18.529m-18.529 0v19.25M148.235 77h18.53m-18.53 0v19.25M166.765 77h18.529m-18.529 0v19.25M185.294 77h18.53m-18.53 0v19.25M203.824 77h18.529m-18.529 0v19.25M222.353 77h18.529m-18.529 0v19.25M240.882 77h18.53m-18.53 0v19.25M259.412 77h18.529m-18.529 0v19.25M277.941 77h18.53m-18.53 0v19.25M296.471 77H315m-18.529 0v19.25M315 77v19.25m-296.47 0H0m18.53 0h18.529m-18.53 0v19.25M0 96.25v19.25m37.059-19.25h18.53m-18.53 0v19.25m18.53-19.25h18.529m-18.53 0v19.25m18.53-19.25h18.53m-18.53 0v19.25m18.53-19.25h18.528m-18.529 0v19.25m18.529-19.25h18.53m-18.53 0v19.25m18.53-19.25h18.529m-18.529 0v19.25m18.529-19.25h18.53m-18.53 0v19.25m18.53-19.25h18.529m-18.529 0v19.25m18.529-19.25h18.53m-18.53 0v19.25m18.53-19.25h18.529m-18.529 0v19.25m18.529-19.25h18.529m-18.529 0v19.25m18.529-19.25h18.53m-18.53 0v19.25m18.53-19.25h18.529m-18.529 0v19.25m18.529-19.25h18.53m-18.53 0v19.25m18.53-19.25H315m-18.529 0v19.25M315 96.25v19.25m-296.47 0H0m18.53 0h18.529m-18.53 0v19.25M0 115.5v19.25m37.059-19.25h18.53m-18.53 0v19.25m18.53-19.25h18.529m-18.53 0v19.25m18.53-19.25h18.53m-18.53 0v19.25m18.53-19.25h18.528m-18.529 0v19.25m18.529-19.25h18.53m-18.53 0v19.25m18.53-19.25h18.529m-18.529 0v19.25m18.529-19.25h18.53m-18.53 0v19.25m18.53-19.25h18.529m-18.529 0v19.25m18.529-19.25h18.53m-18.53 0v19.25m18.53-19.25h18.529m-18.529 0v19.25m18.529-19.25h18.529m-18.529 0v19.25m18.529-19.25h18.53m-18.53 0v19.25m18.53-19.25h18.529m-18.529 0v19.25m18.529-19.25h18.53m-18.53 0v19.25m18.53-19.25H315m-18.529 0v19.25M315 115.5v19.25m-296.47 0H0m18.53 0h18.529m-18.53 0V154M0 134.75V154m37.059-19.25h18.53m-18.53 0V154m18.53-19.25h18.529m-18.53 0V154m18.53-19.25h18.53m-18.53 0V154m18.53-19.25h18.528m-18.529 0V154m18.529-19.25h18.53m-18.53 0V154m18.53-19.25h18.529m-18.529 0V154m18.529-19.25h18.53m-18.53 0V154m18.53-19.25h18.529m-18.529 0V154m18.529-19.25h18.53m-18.53 0V154m18.53-19.25h18.529m-18.529 0V154m18.529-19.25h18.529m-18.529 0V154m18.529-19.25h18.53m-18.53 0V154m18.53-19.25h18.529m-18.529 0V154m18.529-19.25h18.53m-18.53 0V154m18.53-19.25H315m-18.529 0V154M315 134.75V154m-296.47 0H0m18.53 0h18.529m-18.53 0v19.25M0 154v19.25M37.059 154h18.53m-18.53 0v19.25M55.589 154h18.529m-18.53 0v19.25M74.118 154h18.53m-18.53 0v19.25M92.648 154h18.528m-18.529 0v19.25M111.176 154h18.53m-18.53 0v19.25m18.53-19.25h18.529m-18.529 0v19.25M148.235 154h18.53m-18.53 0v19.25m18.53-19.25h18.529m-18.529 0v19.25M185.294 154h18.53m-18.53 0v19.25m18.53-19.25h18.529m-18.529 0v19.25M222.353 154h18.529m-18.529 0v19.25M240.882 154h18.53m-18.53 0v19.25m18.53-19.25h18.529m-18.529 0v19.25M277.941 154h18.53m-18.53 0v19.25m18.53-19.25H315m-18.529 0v19.25M315 154v19.25m-296.47 0H0m18.53 0h18.529m-18.53 0v19.25M0 173.25v19.25m37.059-19.25h18.53m-18.53 0v19.25m18.53-19.25h18.529m-18.53 0v19.25m18.53-19.25h18.53m-18.53 0v19.25m18.53-19.25h18.528m-18.529 0v19.25m18.529-19.25h18.53m-18.53 0v19.25m18.53-19.25h18.529m-18.529 0v19.25m18.529-19.25h18.53m-18.53 0v19.25m18.53-19.25h18.529m-18.529 0v19.25m18.529-19.25h18.53m-18.53 0v19.25m18.53-19.25h18.529m-18.529 0v19.25m18.529-19.25h18.529m-18.529 0v19.25m18.529-19.25h18.53m-18.53 0v19.25m18.53-19.25h18.529m-18.529 0v19.25m18.529-19.25h18.53m-18.53 0v19.25m18.53-19.25H315m-18.529 0v19.25M315 173.25v19.25m-296.47 0H0m18.53 0h18.529m-18.53 0v19.25M0 192.5v19.25m37.059-19.25h18.53m-18.53 0v19.25m18.53-19.25h18.529m-18.53 0v19.25m18.53-19.25h18.53m-18.53 0v19.25m18.53-19.25h18.528m-18.529 0v19.25m18.529-19.25h18.53m-18.53 0v19.25m18.53-19.25h18.529m-18.529 0v19.25m18.529-19.25h18.53m-18.53 0v19.25m18.53-19.25h18.529m-18.529 0v19.25m18.529-19.25h18.53m-18.53 0v19.25m18.53-19.25h18.529m-18.529 0v19.25m18.529-19.25h18.529m-18.529 0v19.25m18.529-19.25h18.53m-18.53 0v19.25m18.53-19.25h18.529m-18.529 0v19.25m18.529-19.25h18.53m-18.53 0v19.25m18.53-19.25H315m-18.529 0v19.25M315 192.5v19.25m-296.47 0H0m18.53 0h18.529m-18.53 0V231M0 211.75V231h18.53m18.529-19.25h18.53m-18.53 0V231m18.53-19.25h18.529m-18.53 0V231m18.53-19.25h18.53m-18.53 0V231m18.53-19.25h18.528m-18.529 0V231m18.529-19.25h18.53m-18.53 0V231m18.53-19.25h18.529m-18.529 0V231m18.529-19.25h18.53m-18.53 0V231m18.53-19.25h18.529m-18.529 0V231m18.529-19.25h18.53m-18.53 0V231m18.53-19.25h18.529m-18.529 0V231m18.529-19.25h18.529m-18.529 0V231m18.529-19.25h18.53m-18.53 0V231m18.53-19.25h18.529m-18.529 0V231m18.529-19.25h18.53m-18.53 0V231m18.53-19.25H315m-18.529 0V231M315 211.75V231h-18.529m-277.942 0h18.53m0 0h18.53m0 0h18.529m0 0h18.53m0 0h18.528m0 0h18.53m0 0h18.529m0 0h18.53m0 0h18.529m0 0h18.53m0 0h18.529m0 0h18.529m0 0h18.53m0 0h18.529m0 0h18.53"/><g filter="url(#c)"><path fill="url(#d)" fill-opacity=".5" d="M180.011 214.272-150.873-228.21l96.337-57.425 252.991 487.823z"/></g></g><defs><radialGradient id="b" cx="0" cy="0" r="1" gradientTransform="rotate(62.438 58.574 -35.5)scale(340.384 492.122)" gradientUnits="userSpaceOnUse"><stop stop-color="#B5D3FD"/><stop offset=".884" stop-color="#B5D3FD" stop-opacity="0"/></radialGradient><linearGradient id="d" x1="-9.964" x2="86.372" y1="8.178" y2="-49.247" gradientUnits="userSpaceOnUse"><stop stop-color="#6E6EB8"/><stop offset="1" stop-color="#335FFF" stop-opacity="0"/></linearGradient><clipPath id="a"><path fill="#fff" d="M0 0h550v482H0z"/></clipPath><filter id="c" width="514.589" height="665.167" x="-233.503" y="-368.265" color-interpolation-filters="sRGB" filterUnits="userSpaceOnUse"><feFlood flood-opacity="0" result="BackgroundImageFix"/><feBlend in="SourceGraphic" in2="BackgroundImageFix" result="shape"/><feGaussianBlur result="effect1_foregroundBlur_2069_69424" stdDeviation="41.315"/></filter></defs></svg>