<svg xmlns="http://www.w3.org/2000/svg" width="22" height="22" fill="none"><path fill="#CCD8FF" fill-rule="evenodd" d="M16.477 15.562c.001.182-.057.234-.234.23a25.508 25.508 0 0 0-1.505.003c-.252.01-.327-.055-.324-.317.015-1.128.006-2.257.008-3.386 0-.31-.02-.616-.134-.908-.193-.492-.525-.825-1.076-.874-.585-.051-1.01.216-1.298.71-.189.324-.232.685-.231 1.055.002 1.14-.006 2.28.007 3.42.003.246-.072.307-.307.299a26.125 26.125 0 0 0-1.505-.001c-.192.004-.25-.053-.25-.249.005-2.348.005-4.697 0-7.045 0-.168.035-.244.225-.24.535.012 1.071.012 1.607 0 .185-.003.234.064.227.237-.012.281-.003.563-.003.918.794-.982 1.75-1.304 2.886-1.075 1.1.222 1.857 1.212 1.889 2.538.037 1.56.01 3.123.018 4.685zM7.233 7.385a1.181 1.181 0 0 1-1.186-1.2A1.2 1.2 0 0 1 7.24 4.983a1.199 1.199 0 0 1 1.185 1.208 1.179 1.179 0 0 1-1.192 1.194zm.737 8.41c-.5-.02-1.003-.013-1.504-.003-.18.003-.26-.03-.26-.239.007-2.347.006-4.693 0-7.04 0-.189.045-.26.246-.254.512.013 1.026.016 1.537-.001.236-.009.28.079.278.292-.009 1.162-.004 2.323-.004 3.486 0 1.15-.007 2.301.005 3.452.003.234-.051.316-.298.307zm11.205-10.26c-.047-.374-.053-.758-.26-1.092-.667-1.083-1.588-1.7-2.909-1.693-3.34.017-6.682 0-10.023.012-.502.001-1.019.018-1.474.287-1.113.659-1.766 1.58-1.759 2.929.016 3.352 0 6.704.011 10.057.002.473.009.967.256 1.392.585 1.007 1.355 1.754 2.62 1.75.036 0 .064.017.095.032h10.536c.058-.052.13-.026.196-.034.378-.047.77-.05 1.106-.267.94-.607 1.63-1.373 1.61-2.582 0-.021.014-.04.03-.058V5.732c-.047-.06-.027-.131-.035-.198z" clip-rule="evenodd"/></svg>