<svg xmlns="http://www.w3.org/2000/svg" width="883" height="320" fill="none"><g clip-path="url(#a)"><path fill="#00041F" stroke="#0E132F" stroke-width=".808" d="M-28.252 142.783 5.971-13.333h44.876L16.662 142.61a81.213 81.213 0 0 0 0 34.78l34.185 155.943H5.971l-34.223-156.116a80.405 80.405 0 0 1 0-34.434z"/><path fill="#00041F" stroke="#0E132F" stroke-width=".808" d="M47.92 142.783 82.143-13.333h44.876L92.834 142.61a81.213 81.213 0 0 0 0 34.78l34.185 155.943H82.143L47.92 177.217a80.402 80.402 0 0 1 0-34.434z"/><path fill="#00041F" stroke="#0E132F" stroke-width=".808" d="m124.092 142.783 34.223-156.116h44.875L169.005 142.61a81.232 81.232 0 0 0 0 34.78l34.185 155.943h-44.875l-34.223-156.116a80.393 80.393 0 0 1 0-34.434z"/><path fill="#00041F" stroke="#0E132F" stroke-width=".808" d="m200.263 142.783 34.223-156.116h44.876L245.177 142.61a81.2 81.2 0 0 0 0 34.78l34.185 155.943h-44.876l-34.223-156.116a80.393 80.393 0 0 1 0-34.434z"/><path fill="#00041F" stroke="#0E132F" stroke-width=".808" d="m276.435 142.783 34.223-156.116h44.876L321.348 142.61a81.232 81.232 0 0 0 0 34.78l34.186 155.943h-44.876l-34.223-156.116a80.393 80.393 0 0 1 0-34.434z"/><path fill="#00041F" stroke="#0E132F" stroke-width=".808" d="m352.606 142.783 34.223-156.116h44.876L397.52 142.61a81.2 81.2 0 0 0 0 34.78l34.185 155.943h-44.876l-34.223-156.116a80.424 80.424 0 0 1 0-34.434zm558.646 0L877.029-13.333h-44.876l34.185 155.943a81.2 81.2 0 0 1 0 34.78l-34.185 155.943h44.876l34.223-156.116a80.424 80.424 0 0 0 0-34.434z"/><path fill="#00041F" stroke="#0E132F" stroke-width=".808" d="M835.08 142.783 800.857-13.333h-44.875l34.185 155.943a81.232 81.232 0 0 1 0 34.78l-34.185 155.943h44.875l34.223-156.116a80.393 80.393 0 0 0 0-34.434z"/><path fill="#00041F" stroke="#0E132F" stroke-width=".808" d="M758.908 142.783 724.685-13.333H679.81l34.185 155.943a81.232 81.232 0 0 1 0 34.78L679.81 333.333h44.875l34.223-156.116a80.393 80.393 0 0 0 0-34.434z"/><path fill="#00041F" stroke="#0E132F" stroke-width=".808" d="M682.737 142.783 648.514-13.333h-44.876l34.185 155.943a81.2 81.2 0 0 1 0 34.78l-34.185 155.943h44.876l34.223-156.116a80.393 80.393 0 0 0 0-34.434z"/><path fill="#00041F" stroke="#0E132F" stroke-width=".808" d="M606.566 142.783 572.343-13.333h-44.876l34.185 155.943a81.2 81.2 0 0 1 0 34.78l-34.185 155.943h44.876l34.223-156.116a80.424 80.424 0 0 0 0-34.434z"/><path fill="#00041F" stroke="#0E132F" stroke-width=".808" d="M530.394 142.783 496.171-13.333h-44.876L485.48 142.61a81.2 81.2 0 0 1 0 34.78l-34.185 155.943h44.876l34.223-156.116a80.424 80.424 0 0 0 0-34.434z"/><g filter="url(#b)"><circle cx="441.096" cy="340.202" r="143.838" fill="#003BFF"/></g><path fill="url(#c)" d="M.692 0h881.616v320H.692z"/><path fill="url(#d)" d="M.692 0h881.616v320H.692z"/></g><defs><radialGradient id="c" cx="0" cy="0" r="1" gradientTransform="scale(573.697 208.235) rotate(90 .039 .73)" gradientUnits="userSpaceOnUse"><stop stop-color="#00020F" stop-opacity="0"/><stop offset=".752" stop-color="#00020F"/></radialGradient><linearGradient id="d" x1="441.5" x2="441.5" y1="-6" y2="352.323" gradientUnits="userSpaceOnUse"><stop offset=".58" stop-color="#00020F" stop-opacity="0"/><stop offset="1" stop-color="#00020F"/></linearGradient><clipPath id="a"><path fill="#fff" d="M.692 0h881.616v320H.692z"/></clipPath><filter id="b" width="874.182" height="874.182" x="4.005" y="-96.889" color-interpolation-filters="sRGB" filterUnits="userSpaceOnUse"><feFlood flood-opacity="0" result="BackgroundImageFix"/><feBlend in="SourceGraphic" in2="BackgroundImageFix" result="shape"/><feGaussianBlur result="effect1_foregroundBlur_2209_788" stdDeviation="146.626"/></filter></defs></svg>