<svg xmlns="http://www.w3.org/2000/svg" width="22" height="22" fill="none"><path fill="#CCD8FF" d="M10.854 8.295a2.567 2.567 0 1 0 2.566 2.566 2.558 2.558 0 0 0-2.566-2.566z"/><path fill="#CCD8FF" fill-rule="evenodd" d="M14.383 1.832h-7.05a5.5 5.5 0 0 0-5.5 5.5v7.05a5.5 5.5 0 0 0 5.5 5.5h7.05a5.5 5.5 0 0 0 5.5-5.5v-7.05a5.5 5.5 0 0 0-5.5-5.5zm-3.53 12.962a3.942 3.942 0 1 1 .019-7.884 3.942 3.942 0 0 1-.018 7.884zm3.424-8.46a1 1 0 0 0 .93.613.99.99 0 0 0 .99-.99 1 1 0 1 0-1.92.377z" clip-rule="evenodd"/></svg>