<svg xmlns="http://www.w3.org/2000/svg" width="717" height="268" fill="none"><g clip-path="url(#a)"><path fill="#000319" stroke="url(#b)" d="M20.456 267.185a337.508 337.508 0 0 1 25.68-128.632 337.442 337.442 0 0 1 73.13-109.473 337.358 337.358 0 0 1 109.447-73.148 337.289 337.289 0 0 1 258.204 0A337.36 337.36 0 0 1 596.364 29.08a337.438 337.438 0 0 1 73.13 109.473 337.522 337.522 0 0 1 25.68 128.632h-46.301a291.173 291.173 0 0 0-85.248-205.358 291.063 291.063 0 0 0-94.427-63.109 291 291 0 0 0-317.193 63.109 291.13 291.13 0 0 0-63.094 94.448 291.189 291.189 0 0 0-22.155 110.91h-46.3z"/><path fill="#000319" stroke="url(#c)" d="M102.953 267.5a255.568 255.568 0 0 1 19.4-97.176A255.266 255.266 0 0 1 177.6 87.519a254.842 254.842 0 0 1 82.684-55.328 254.533 254.533 0 0 1 97.531-19.429c33.469 0 66.61 6.602 97.531 19.43a254.831 254.831 0 0 1 82.684 55.327 255.26 255.26 0 0 1 55.247 82.806 255.544 255.544 0 0 1 19.4 97.175h-34.751a220.705 220.705 0 0 0-16.754-83.856 220.456 220.456 0 0 0-47.714-71.514 220.08 220.08 0 0 0-71.41-47.785 219.828 219.828 0 0 0-168.466 0 220.099 220.099 0 0 0-71.41 47.785 220.456 220.456 0 0 0-47.714 71.514 220.705 220.705 0 0 0-16.754 83.856h-34.751z"/><path fill="#000319" stroke="url(#d)" d="M171.595 267.5a186.887 186.887 0 0 1 14.175-70.901 186.606 186.606 0 0 1 40.368-60.531 186.209 186.209 0 0 1 60.414-40.445 185.907 185.907 0 0 1 71.263-14.202c24.454 0 48.67 4.826 71.263 14.202a186.209 186.209 0 0 1 60.414 40.445 186.603 186.603 0 0 1 40.367 60.531 186.887 186.887 0 0 1 14.175 70.901h-25.141a161.656 161.656 0 0 0-12.26-61.26 161.395 161.395 0 0 0-34.918-52.358 161.051 161.051 0 0 0-52.258-34.985 160.802 160.802 0 0 0-123.285 0 161.062 161.062 0 0 0-52.258 34.985 161.409 161.409 0 0 0-34.917 52.358 161.657 161.657 0 0 0-12.261 61.26h-25.141z"/><path fill="#000319" stroke="url(#e)" d="M232.681 267.5c.065-16.309 3.3-32.45 9.525-47.519a125.494 125.494 0 0 1 27.126-40.709 125.11 125.11 0 0 1 40.596-27.2 124.834 124.834 0 0 1 95.773 0 125.113 125.113 0 0 1 40.597 27.2 125.51 125.51 0 0 1 27.126 40.709 125.78 125.78 0 0 1 9.524 47.519h-16.589a109.091 109.091 0 0 0-8.261-41.152 108.872 108.872 0 0 0-23.529-35.311 108.54 108.54 0 0 0-35.215-23.594 108.292 108.292 0 0 0-83.078 0 108.518 108.518 0 0 0-35.215 23.594 108.875 108.875 0 0 0-23.53 35.311 109.11 109.11 0 0 0-8.261 41.152h-16.589z"/><path fill="#000319" stroke="url(#f)" d="M278.024 267.5a80.423 80.423 0 0 1 6.072-30.164 80.158 80.158 0 0 1 17.297-25.995 79.788 79.788 0 0 1 25.887-17.369 79.515 79.515 0 0 1 30.535-6.099 79.51 79.51 0 0 1 30.534 6.099 79.788 79.788 0 0 1 25.887 17.369 80.142 80.142 0 0 1 17.297 25.995 80.404 80.404 0 0 1 6.073 30.164h-10.241a70.08 70.08 0 0 0-5.293-26.226 69.859 69.859 0 0 0-15.076-22.657 69.54 69.54 0 0 0-22.564-15.14 69.322 69.322 0 0 0-26.617-5.316 69.318 69.318 0 0 0-26.617 5.316 69.545 69.545 0 0 0-22.565 15.14 69.859 69.859 0 0 0-15.076 22.657 70.08 70.08 0 0 0-5.292 26.226h-10.241z"/><mask id="h" fill="#fff"><path fill-rule="evenodd" d="M46.255 138.602a337.383 337.383 0 0 0-25.67 128.453h46.042a291.315 291.315 0 0 1 22.165-110.829 291.265 291.265 0 0 1 63.121-94.491 291.189 291.189 0 0 1 94.469-63.137 291.124 291.124 0 0 1 222.866 0 291.175 291.175 0 0 1 94.468 63.137 291.298 291.298 0 0 1 85.287 205.32h46.041a337.378 337.378 0 0 0-25.67-128.453 337.306 337.306 0 0 0-73.102-109.43 337.213 337.213 0 0 0-109.405-73.12 337.157 337.157 0 0 0-258.104 0 337.21 337.21 0 0 0-109.405 73.12 337.31 337.31 0 0 0-73.103 109.43zm649.419 128.453a338.017 338.017 0 0 0-25.718-128.694 337.946 337.946 0 0 0-73.238-109.635 337.865 337.865 0 0 0-109.61-73.256 337.791 337.791 0 0 0-258.586 0 337.854 337.854 0 0 0-109.61 73.256 337.95 337.95 0 0 0-73.238 109.635 338.01 338.01 0 0 0-25.718 129.324h47.3c0-38.166 7.515-75.958 22.117-111.218A290.622 290.622 0 0 1 152.36 62.18a290.557 290.557 0 0 1 94.264-63 290.497 290.497 0 0 1 222.384 0 290.558 290.558 0 0 1 94.264 63 290.682 290.682 0 0 1 85.103 205.505h47.3v-.63z" clip-rule="evenodd"/></mask><path fill="#000319" fill-rule="evenodd" d="M46.255 138.602a337.383 337.383 0 0 0-25.67 128.453h46.042a291.315 291.315 0 0 1 22.165-110.829 291.265 291.265 0 0 1 63.121-94.491 291.189 291.189 0 0 1 94.469-63.137 291.124 291.124 0 0 1 222.866 0 291.175 291.175 0 0 1 94.468 63.137 291.298 291.298 0 0 1 85.287 205.32h46.041a337.378 337.378 0 0 0-25.67-128.453 337.306 337.306 0 0 0-73.102-109.43 337.213 337.213 0 0 0-109.405-73.12 337.157 337.157 0 0 0-258.104 0 337.21 337.21 0 0 0-109.405 73.12 337.31 337.31 0 0 0-73.103 109.43zm649.419 128.453a338.017 338.017 0 0 0-25.718-128.694 337.946 337.946 0 0 0-73.238-109.635 337.865 337.865 0 0 0-109.61-73.256 337.791 337.791 0 0 0-258.586 0 337.854 337.854 0 0 0-109.61 73.256 337.95 337.95 0 0 0-73.238 109.635 338.01 338.01 0 0 0-25.718 129.324h47.3c0-38.166 7.515-75.958 22.117-111.218A290.622 290.622 0 0 1 152.36 62.18a290.557 290.557 0 0 1 94.264-63 290.497 290.497 0 0 1 222.384 0 290.558 290.558 0 0 1 94.264 63 290.682 290.682 0 0 1 85.103 205.505h47.3v-.63z" clip-rule="evenodd"/><path fill="url(#g)" d="m20.586 267.055-1-.002-.002 1.002h1.002v-1zm25.67-128.453.923.383-.924-.383zm20.37 128.453v1h.999l.002-.998-1-.002zm22.166-110.829-.924-.383.924.383zM246.382-1.402l.383.924-.383-.924zm222.866 0-.383.924.383-.924zm157.59 157.628-.924.382.924-.382zm22.165 110.829-1 .002.002.998h.998v-1zm46.041 0v1h1.002l-.002-1.002-1 .002zm-25.67-128.453.924-.382-.924.382zM357.815-69.624v1-1zM228.763-43.948l.383.924-.383-.924zm-109.405 73.12.707.706-.707-.706zM669.956 138.36l-.924.383.924-.383zm25.718 128.694 1-.002-1 .002zM596.718 28.726l.707-.707-.707.707zM487.108-44.53l.383-.924-.383.924zM357.815-70.254v-1 1zM228.522-44.53l.383.924-.383-.924zm-109.61 73.256.707.707-.707-.707zM45.674 138.361l-.924-.382.924.382zM19.956 267.055l1 .002-1-.002zm0 .63h-1v1h1v-1zm47.3 0v1h1v-1h-1zm22.117-111.218-.924-.383.924.383zM152.36 62.18l.707.707-.707-.707zm205.456-85.123v-1 1zM469.007-.82l-.383.924.383-.924zm94.264 63 .707-.707-.707.707zm85.103 205.505h-1v1h1v-1zm47.3 0v1h1v-1h-1zm-674.088-.628a336.38 336.38 0 0 1 25.593-128.072l-1.848-.765a338.376 338.376 0 0 0-25.745 128.833l2 .004zm45.04-1.002h-46.04v2h46.04v-2zm21.242-110.212a292.319 292.319 0 0 0-22.241 111.21l2 .004a290.314 290.314 0 0 1 22.089-110.449l-1.848-.765zm63.338-94.815a292.261 292.261 0 0 0-63.338 94.815l1.848.765a290.264 290.264 0 0 1 62.905-94.166l-1.415-1.414zm94.793-63.354a292.182 292.182 0 0 0-94.793 63.354l1.415 1.414a290.171 290.171 0 0 1 94.144-62.92l-.766-1.848zm111.816-22.246A292.13 292.13 0 0 0 245.999-2.326l.766 1.848a290.126 290.126 0 0 1 111.05-22.094v-2zM469.631-2.326a292.13 292.13 0 0 0-111.816-22.246v2c38.108 0 75.843 7.507 111.05 22.094l.766-1.848zm94.793 63.354a292.194 292.194 0 0 0-94.793-63.354l-.766 1.848a290.17 290.17 0 0 1 94.144 62.92l1.415-1.414zm63.338 94.815a292.27 292.27 0 0 0-63.338-94.815l-1.415 1.414a290.253 290.253 0 0 1 62.905 94.166l1.848-.765zm22.241 111.21a292.332 292.332 0 0 0-22.241-111.21l-1.848.765a290.307 290.307 0 0 1 22.089 110.449l2-.004zm45.041-.998h-46.041v2h46.041v-2zm-26.593-127.07a336.38 336.38 0 0 1 25.593 128.072l2-.004a338.388 338.388 0 0 0-25.746-128.833l-1.847.765zM595.565 29.878a336.327 336.327 0 0 1 72.886 109.107l1.847-.765a338.296 338.296 0 0 0-73.319-109.755l-1.414 1.413zM486.484-43.023A336.22 336.22 0 0 1 595.565 29.88l1.414-1.415A338.215 338.215 0 0 0 487.25-44.871l-.766 1.848zm-128.669-25.6a336.16 336.16 0 0 1 128.669 25.6l.766-1.848a338.16 338.16 0 0 0-129.435-25.752v2zm-128.669 25.6a336.16 336.16 0 0 1 128.669-25.6v-2c-44.417 0-88.399 8.75-129.435 25.752l.766 1.848zM120.065 29.879a336.22 336.22 0 0 1 109.081-72.903l-.766-1.848a338.232 338.232 0 0 0-109.73 73.336l1.415 1.415zM47.179 138.984a336.312 336.312 0 0 1 72.886-109.107l-1.415-1.414A338.318 338.318 0 0 0 45.331 138.22l1.848.765zm621.853-.241a337.021 337.021 0 0 1 25.642 128.313l2-.004a339.009 339.009 0 0 0-25.794-129.074l-1.848.765zM596.01 29.434a336.921 336.921 0 0 1 73.022 109.31l1.848-.765a338.937 338.937 0 0 0-73.455-109.96l-1.415 1.414zm-109.285-73.04a336.848 336.848 0 0 1 109.285 73.04l1.415-1.415a338.858 338.858 0 0 0-109.934-73.473l-.766 1.848zm-128.91-25.648c44.237 0 88.041 8.715 128.91 25.648l.766-1.848a338.788 338.788 0 0 0-129.676-25.8v2zm-128.91 25.648a336.785 336.785 0 0 1 128.91-25.648v-2c-44.5 0-88.564 8.767-129.676 25.8l.766 1.848zm-109.286 73.04a336.86 336.86 0 0 1 109.286-73.04l-.766-1.848A338.859 338.859 0 0 0 118.205 28.02l1.414 1.414zm-73.022 109.31a336.95 336.95 0 0 1 73.022-109.31l-1.414-1.415a338.943 338.943 0 0 0-73.455 109.96l1.847.765zm-25.64 128.313a337.007 337.007 0 0 1 25.64-128.313l-1.847-.765a339.004 339.004 0 0 0-25.794 129.074l2 .004zm-.001.628v-.628l-2-.004v.632h2zm67.493-111.601a291.69 291.69 0 0 0-22.193 111.601h2c0-38.035 7.49-75.697 22.041-110.836l-1.848-.765zm63.202-94.61a291.647 291.647 0 0 0-63.202 94.61l1.848.765a289.635 289.635 0 0 1 62.769-93.962l-1.415-1.414zM246.24-1.745a291.553 291.553 0 0 0-94.589 63.217l1.415 1.414A289.554 289.554 0 0 1 247.006.104l-.766-1.848zm111.575-22.198A291.503 291.503 0 0 0 246.24-1.744l.766 1.848a289.496 289.496 0 0 1 110.809-22.046v-2zM469.39-1.744a291.502 291.502 0 0 0-111.575-22.198v2c38.025 0 75.678 7.49 110.809 22.046l.766-1.848zm94.588 63.217A291.55 291.55 0 0 0 469.39-1.744l-.766 1.848a289.554 289.554 0 0 1 93.94 62.783l1.414-1.414zm63.202 94.611a291.623 291.623 0 0 0-63.202-94.61l-1.414 1.413a289.639 289.639 0 0 1 62.769 93.962l1.847-.765zm22.194 111.601c0-38.297-7.541-76.219-22.194-111.601l-1.847.765a289.706 289.706 0 0 1 22.041 110.836h2zm45.3-.628v.628h2v-.632l-2 .004zm-627.418-.372h-47.3v2h47.3v-2zm628.418 0h-47.3v2h47.3v-2z" mask="url(#h)"/><mask id="j" fill="#fff"><path fill-rule="evenodd" d="M122.331 170.316a255.573 255.573 0 0 0-19.402 97.207h34.799a220.684 220.684 0 0 1 16.753-83.871 220.429 220.429 0 0 1 47.709-71.506 220.065 220.065 0 0 1 71.401-47.78 219.808 219.808 0 0 1 84.224-16.777c28.902 0 57.522 5.701 84.224 16.778a220.069 220.069 0 0 1 71.402 47.779 220.445 220.445 0 0 1 47.709 71.506 220.706 220.706 0 0 1 16.752 83.871h34.799a255.573 255.573 0 0 0-19.402-97.207 255.28 255.28 0 0 0-55.252-82.813 254.86 254.86 0 0 0-82.691-55.333 254.564 254.564 0 0 0-97.541-19.43 254.566 254.566 0 0 0-97.541 19.43 254.869 254.869 0 0 0-82.691 55.333 255.28 255.28 0 0 0-55.252 82.813zm490.846 97.207a256.05 256.05 0 0 0-19.438-97.39 255.776 255.776 0 0 0-55.355-82.967 255.344 255.344 0 0 0-82.846-55.437 255.036 255.036 0 0 0-97.723-19.466 255.035 255.035 0 0 0-97.723 19.466 255.33 255.33 0 0 0-82.845 55.437 255.762 255.762 0 0 0-55.356 82.967 256.07 256.07 0 0 0-19.438 97.39V268h35.75c0-28.882 5.681-57.482 16.717-84.165a219.96 219.96 0 0 1 47.606-71.352 219.595 219.595 0 0 1 71.247-47.676 219.333 219.333 0 0 1 84.042-16.741c28.84 0 57.397 5.688 84.042 16.741a219.597 219.597 0 0 1 71.247 47.676 219.96 219.96 0 0 1 47.606 71.352A220.222 220.222 0 0 1 577.427 268h35.75v-.477z" clip-rule="evenodd"/></mask><path fill="#000319" fill-rule="evenodd" d="M122.331 170.316a255.573 255.573 0 0 0-19.402 97.207h34.799a220.684 220.684 0 0 1 16.753-83.871 220.429 220.429 0 0 1 47.709-71.506 220.065 220.065 0 0 1 71.401-47.78 219.808 219.808 0 0 1 84.224-16.777c28.902 0 57.522 5.701 84.224 16.778a220.069 220.069 0 0 1 71.402 47.779 220.445 220.445 0 0 1 47.709 71.506 220.706 220.706 0 0 1 16.752 83.871h34.799a255.573 255.573 0 0 0-19.402-97.207 255.28 255.28 0 0 0-55.252-82.813 254.86 254.86 0 0 0-82.691-55.333 254.564 254.564 0 0 0-97.541-19.43 254.566 254.566 0 0 0-97.541 19.43 254.869 254.869 0 0 0-82.691 55.333 255.28 255.28 0 0 0-55.252 82.813zm490.846 97.207a256.05 256.05 0 0 0-19.438-97.39 255.776 255.776 0 0 0-55.355-82.967 255.344 255.344 0 0 0-82.846-55.437 255.036 255.036 0 0 0-97.723-19.466 255.035 255.035 0 0 0-97.723 19.466 255.33 255.33 0 0 0-82.845 55.437 255.762 255.762 0 0 0-55.356 82.967 256.07 256.07 0 0 0-19.438 97.39V268h35.75c0-28.882 5.681-57.482 16.717-84.165a219.96 219.96 0 0 1 47.606-71.352 219.595 219.595 0 0 1 71.247-47.676 219.333 219.333 0 0 1 84.042-16.741c28.84 0 57.397 5.688 84.042 16.741a219.597 219.597 0 0 1 71.247 47.676 219.96 219.96 0 0 1 47.606 71.352A220.222 220.222 0 0 1 577.427 268h35.75v-.477z" clip-rule="evenodd"/><path fill="url(#i)" d="m102.929 267.523-1-.002-.002 1.002h1.002v-1zm19.402-97.207.924.382-.924-.382zm15.397 97.207v1h.998l.002-.998-1-.002zm16.753-83.871-.924-.382.924.382zm119.11-119.285.383.923-.383-.923zm168.448 0-.383.923.383-.923zM561.15 183.652l-.925.383.925-.383zm16.752 83.871-1 .002.002.998h.998v-1zm34.799 0v1h1.002l-.002-1.002-1 .002zm-19.402-97.207.925-.382-.925.382zM357.815 12.739v1-1zm-97.541 19.43.383.924-.383-.923zm-82.691 55.334.708.707-.708-.707zm416.156 82.63-.924.383.924-.383zm19.438 97.39 1-.002-1 .002zM538.384 87.166l.707-.706-.707.706zM455.538 31.73l.383-.923-.383.923zm-97.723-19.466v-1 1zM260.092 31.73l.383.924-.383-.924zm-82.845 55.437.707.707-.707-.707zm-55.356 82.967-.924-.382.924.382zm-19.438 97.39 1 .002-1-.002zm0 .477h-1v1h1v-1zm35.75 0v1h1v-1h-1zm16.717-84.165-.924-.383.924.383zm47.606-71.352.708.706-.708-.706zm155.289-64.417v-1 1zm84.042 16.741-.383.924.383-.924zm71.247 47.676.708-.707-.708.707zM577.427 268h-1v1h1v-1zm35.75 0v1h1v-1h-1zm-509.248-.475a254.578 254.578 0 0 1 19.326-96.827l-1.848-.764a256.583 256.583 0 0 0-19.478 97.587l2 .004zm33.799-1.002h-34.799v2h34.799v-2zm15.829-83.253a221.676 221.676 0 0 0-16.829 84.251l2 .004a219.697 219.697 0 0 1 16.677-83.491l-1.848-.764zm47.925-71.831a221.417 221.417 0 0 0-47.925 71.831l1.848.764a219.442 219.442 0 0 1 47.492-71.182l-1.415-1.413zm71.726-47.996a221.068 221.068 0 0 0-71.726 47.996l1.415 1.413a219.077 219.077 0 0 1 71.077-47.562l-.766-1.847zm84.607-16.854a220.807 220.807 0 0 0-84.607 16.854l.766 1.847a218.807 218.807 0 0 1 83.841-16.701v-2zm84.607 16.854a220.809 220.809 0 0 0-84.607-16.854v2c28.771 0 57.26 5.675 83.841 16.701l.766-1.847zm71.726 47.996a221.07 221.07 0 0 0-71.726-47.996l-.766 1.847a219.068 219.068 0 0 1 71.077 47.562l1.415-1.413zm47.926 71.831a221.436 221.436 0 0 0-47.926-71.831l-1.415 1.413a219.436 219.436 0 0 1 47.492 71.183l1.849-.765zm16.828 84.251a221.694 221.694 0 0 0-16.828-84.251l-1.849.765a219.688 219.688 0 0 1 16.677 83.49l2-.004zm33.799-.998h-34.799v2h34.799v-2zm-20.326-95.825a254.578 254.578 0 0 1 19.326 96.827l2-.004a256.582 256.582 0 0 0-19.477-97.587l-1.849.764zM537.339 88.21a254.281 254.281 0 0 1 55.036 82.488l1.849-.764a256.302 256.302 0 0 0-55.469-83.137l-1.416 1.413zm-82.366-55.117a253.851 253.851 0 0 1 82.366 55.117l1.416-1.413a255.87 255.87 0 0 0-83.016-55.551l-.766 1.847zM357.815 13.74c33.341 0 66.355 6.577 97.158 19.354l.766-1.847a255.563 255.563 0 0 0-97.924-19.507v2zm-97.158 19.354a253.563 253.563 0 0 1 97.158-19.354v-2a255.563 255.563 0 0 0-97.924 19.507l.766 1.847zM178.291 88.21a253.86 253.86 0 0 1 82.366-55.117l-.766-1.847a255.853 255.853 0 0 0-83.015 55.55l1.415 1.414zm-55.036 82.488a254.283 254.283 0 0 1 55.036-82.488l-1.415-1.413a256.27 256.27 0 0 0-55.469 83.137l1.848.764zm469.56-.182a255.054 255.054 0 0 1 19.362 97.009l2-.004a257.046 257.046 0 0 0-19.514-97.77l-1.848.765zm-55.139-82.643a254.75 254.75 0 0 1 55.139 82.643l1.848-.765a256.755 256.755 0 0 0-55.572-83.291l-1.415 1.413zm-82.521-55.22a254.345 254.345 0 0 1 82.521 55.22l1.415-1.413a256.329 256.329 0 0 0-83.17-55.654l-.766 1.847zm-97.34-19.39c33.403 0 66.479 6.588 97.34 19.39l.766-1.847a256.035 256.035 0 0 0-98.106-19.544v2zm-97.34 19.39a254.037 254.037 0 0 1 97.34-19.39v-2c-33.666 0-67.003 6.64-98.106 19.543l.766 1.847zm-82.521 55.22a254.345 254.345 0 0 1 82.521-55.22l-.766-1.847a256.34 256.34 0 0 0-83.17 55.654l1.415 1.413zm-55.139 82.643a254.75 254.75 0 0 1 55.139-82.643l-1.415-1.413a256.76 256.76 0 0 0-55.572 83.291l1.848.765zm-19.362 97.009a255.054 255.054 0 0 1 19.362-97.009l-1.848-.765a257.08 257.08 0 0 0-19.514 97.77l2 .004zm0 .475v-.475l-2-.004V268h2zm50.543-84.548A221.232 221.232 0 0 0 137.203 268h2a219.22 219.22 0 0 1 16.641-83.783l-1.848-.765zm47.823-71.676a220.97 220.97 0 0 0-47.823 71.676l1.848.765a218.966 218.966 0 0 1 47.39-71.028l-1.415-1.413zm71.571-47.892a220.585 220.585 0 0 0-71.571 47.892l1.415 1.413a218.588 218.588 0 0 1 70.923-47.458l-.767-1.847zm84.425-16.818a220.334 220.334 0 0 0-84.425 16.817l.767 1.848a218.331 218.331 0 0 1 83.658-16.665v-2zm84.425 16.817a220.334 220.334 0 0 0-84.425-16.817v2c28.708 0 57.136 5.662 83.659 16.665l.766-1.847zm71.572 47.893a220.6 220.6 0 0 0-71.572-47.892l-.766 1.847a218.581 218.581 0 0 1 70.922 47.459l1.416-1.414zm47.822 71.677a220.976 220.976 0 0 0-47.822-71.677l-1.416 1.414a218.962 218.962 0 0 1 47.39 71.027l1.848-.764zM578.427 268c0-29.013-5.706-57.743-16.793-84.547l-1.848.764A219.22 219.22 0 0 1 576.427 268h2zm33.75-.475V268h2v-.479l-2 .004zM138.203 267h-35.75v2h35.75v-2zm474.974 0h-35.75v2h35.75v-2z" mask="url(#j)"/><mask id="l" fill="#fff"><path fill-rule="evenodd" d="M185.629 196.541a187.066 187.066 0 0 0-14.186 71.11h25.445a161.499 161.499 0 0 1 12.249-61.354 161.276 161.276 0 0 1 34.885-52.309 160.902 160.902 0 0 1 52.209-34.951 160.652 160.652 0 0 1 61.584-12.274 160.66 160.66 0 0 1 61.584 12.274 160.898 160.898 0 0 1 52.208 34.951 161.255 161.255 0 0 1 34.885 52.309 161.519 161.519 0 0 1 12.25 61.354h25.444A187.028 187.028 0 0 0 530 196.541a186.75 186.75 0 0 0-40.4-60.579 186.354 186.354 0 0 0-60.464-40.478 186.059 186.059 0 0 0-71.321-14.214c-24.475 0-48.71 4.83-71.322 14.214a186.35 186.35 0 0 0-60.463 40.478 186.769 186.769 0 0 0-40.401 60.579zm358.905 71.11a187.382 187.382 0 0 0-14.212-71.243 187.116 187.116 0 0 0-40.476-60.693 186.701 186.701 0 0 0-60.577-40.554 186.408 186.408 0 0 0-71.454-14.24 186.409 186.409 0 0 0-71.455 14.24 186.687 186.687 0 0 0-60.576 40.554 187.1 187.1 0 0 0-40.476 60.693 187.402 187.402 0 0 0-14.213 71.243V268h26.141a161.15 161.15 0 0 1 12.223-61.569 160.914 160.914 0 0 1 34.809-52.196 160.543 160.543 0 0 1 52.096-34.876 160.297 160.297 0 0 1 122.902 0 160.55 160.55 0 0 1 52.095 34.876 160.9 160.9 0 0 1 34.81 52.196A161.169 161.169 0 0 1 518.394 268h26.141l-.001-.349z" clip-rule="evenodd"/></mask><path fill="#000319" fill-rule="evenodd" d="M185.629 196.541a187.066 187.066 0 0 0-14.186 71.11h25.445a161.499 161.499 0 0 1 12.249-61.354 161.276 161.276 0 0 1 34.885-52.309 160.902 160.902 0 0 1 52.209-34.951 160.652 160.652 0 0 1 61.584-12.274 160.66 160.66 0 0 1 61.584 12.274 160.898 160.898 0 0 1 52.208 34.951 161.255 161.255 0 0 1 34.885 52.309 161.519 161.519 0 0 1 12.25 61.354h25.444A187.028 187.028 0 0 0 530 196.541a186.75 186.75 0 0 0-40.4-60.579 186.354 186.354 0 0 0-60.464-40.478 186.059 186.059 0 0 0-71.321-14.214c-24.475 0-48.71 4.83-71.322 14.214a186.35 186.35 0 0 0-60.463 40.478 186.769 186.769 0 0 0-40.401 60.579zm358.905 71.11a187.382 187.382 0 0 0-14.212-71.243 187.116 187.116 0 0 0-40.476-60.693 186.701 186.701 0 0 0-60.577-40.554 186.408 186.408 0 0 0-71.454-14.24 186.409 186.409 0 0 0-71.455 14.24 186.687 186.687 0 0 0-60.576 40.554 187.1 187.1 0 0 0-40.476 60.693 187.402 187.402 0 0 0-14.213 71.243V268h26.141a161.15 161.15 0 0 1 12.223-61.569 160.914 160.914 0 0 1 34.809-52.196 160.543 160.543 0 0 1 52.096-34.876 160.297 160.297 0 0 1 122.902 0 160.55 160.55 0 0 1 52.095 34.876 160.9 160.9 0 0 1 34.81 52.196A161.169 161.169 0 0 1 518.394 268h26.141l-.001-.349z" clip-rule="evenodd"/><path fill="url(#k)" d="m171.443 267.651-1-.002-.002 1.002h1.002v-1zm14.186-71.11.925.382-.925-.382zm11.259 71.11v1h.998l.002-.998-1-.002zm12.249-61.354-.924-.382.924.382zm87.094-87.26.383.923-.383-.923zm123.168 0-.383.923.383-.923zm87.093 87.26-.924.382.924-.382zm12.25 61.354-1 .002.002.998h.998v-1zm25.444 0v1h1.002l-.002-1.002-1 .002zM530 196.541l.924-.382-.924.382zM357.815 81.27v1-1zm-71.322 14.214.384.923-.384-.923zm-60.463 40.478.708.706-.708-.706zm304.292 60.446-.925.382.925-.382zm14.212 71.243 1-.002-1 .002zm-54.688-131.936.708-.706-.708.706zm-60.577-40.554.384-.923-.384.923zm-71.454-14.24v-1 1zM286.36 95.16l.383.924-.383-.924zm-60.576 40.554.708.706-.708-.706zm-40.476 60.693-.924-.382.924.382zm-14.213 71.243 1 .002-1-.002zm0 .349h-1v1h1v-1zm26.141 0v1h1v-1h-1zm12.223-61.569-.924-.382.924.382zm34.809-52.196.708.706-.708-.706zm113.547-47.123v-1 1zm61.451 12.247-.384.923.384-.923zm52.095 34.876.708-.707-.708.707zM518.394 268h-1v1h1v-1zm26.141 0v1h1v-1h-1zm-372.092-.347a186.034 186.034 0 0 1 14.111-70.73l-1.849-.764a188.061 188.061 0 0 0-14.262 71.49l2 .004zm24.445-1.002h-25.445v2h25.445v-2zm11.325-60.736a162.505 162.505 0 0 0-12.325 61.734l2 .004a160.504 160.504 0 0 1 12.173-60.974l-1.848-.764zm35.101-52.633a162.27 162.27 0 0 0-35.101 52.633l1.848.764a160.261 160.261 0 0 1 34.669-51.984l-1.416-1.413zm52.533-35.169a161.903 161.903 0 0 0-52.533 35.169l1.416 1.413a159.898 159.898 0 0 1 51.884-34.735l-.767-1.847zm61.968-12.35a161.667 161.667 0 0 0-61.968 12.35l.767 1.847a159.667 159.667 0 0 1 61.201-12.197v-2zm61.967 12.35a161.662 161.662 0 0 0-61.967-12.35v2c21.001 0 41.797 4.145 61.201 12.197l.766-1.847zm52.533 35.169a161.903 161.903 0 0 0-52.533-35.169l-.766 1.847a159.925 159.925 0 0 1 51.884 34.735l1.415-1.413zm35.101 52.633a162.239 162.239 0 0 0-35.101-52.633l-1.415 1.413a160.258 160.258 0 0 1 34.668 51.984l1.848-.764zm12.326 61.734a162.506 162.506 0 0 0-12.326-61.734l-1.848.764a160.524 160.524 0 0 1 12.174 60.974l2-.004zm24.444-.998h-25.444v2h25.444v-2zm-15.11-69.728a186.033 186.033 0 0 1 14.11 70.73l2-.004a188.023 188.023 0 0 0-14.262-71.49l-1.848.764zm-40.184-60.255a185.766 185.766 0 0 1 40.184 60.255l1.848-.764a187.762 187.762 0 0 0-40.617-60.904l-1.415 1.413zm-60.139-40.26a185.352 185.352 0 0 1 60.139 40.26l1.415-1.413A187.345 187.345 0 0 0 429.52 94.56l-.767 1.847zM357.815 82.27c24.343 0 48.448 4.804 70.938 14.137l.767-1.847a187.067 187.067 0 0 0-71.705-14.29v2zm-70.938 14.137a185.06 185.06 0 0 1 70.938-14.137v-2a187.06 187.06 0 0 0-71.705 14.29l.767 1.847zm-60.139 40.261a185.33 185.33 0 0 1 60.139-40.26l-.767-1.848a187.35 187.35 0 0 0-60.788 40.695l1.416 1.413zm-40.184 60.255a185.75 185.75 0 0 1 40.184-60.255l-1.416-1.413a187.778 187.778 0 0 0-40.617 60.904l1.849.764zm342.843-.133a186.37 186.37 0 0 1 14.137 70.863l2-.004a188.373 188.373 0 0 0-14.288-71.623l-1.849.764zm-40.259-60.369a186.097 186.097 0 0 1 40.259 60.369l1.849-.764a188.1 188.1 0 0 0-40.692-61.017l-1.416 1.412zm-60.252-40.336a185.702 185.702 0 0 1 60.252 40.336l1.416-1.412a187.71 187.71 0 0 0-60.901-40.771l-.767 1.847zm-71.071-14.164c24.389 0 48.539 4.813 71.071 14.164l.767-1.847a187.412 187.412 0 0 0-71.838-14.317v2zm-71.072 14.164a185.415 185.415 0 0 1 71.072-14.164v-2a187.408 187.408 0 0 0-71.838 14.317l.766 1.847zm-60.251 40.336a185.7 185.7 0 0 1 60.251-40.336l-.766-1.847a187.689 187.689 0 0 0-60.901 40.771l1.416 1.412zm-40.26 60.369a186.116 186.116 0 0 1 40.26-60.369l-1.416-1.412a188.084 188.084 0 0 0-40.692 61.017l1.848.764zm-14.137 70.863a186.388 186.388 0 0 1 14.137-70.863l-1.848-.764a188.393 188.393 0 0 0-14.289 71.623l2 .004zm0 .347v-.347l-2-.004V268h2zm36.44-61.951A162.155 162.155 0 0 0 196.236 268h2c0-20.997 4.127-41.789 12.147-61.187l-1.848-.764zm35.025-52.521a161.913 161.913 0 0 0-35.025 52.521l1.848.764a159.903 159.903 0 0 1 34.593-51.872l-1.416-1.413zm52.42-35.093a161.583 161.583 0 0 0-52.42 35.093l1.416 1.413a159.552 159.552 0 0 1 51.771-34.659l-.767-1.847zm61.835-12.323a161.312 161.312 0 0 0-61.835 12.323l.767 1.847a159.312 159.312 0 0 1 61.068-12.17v-2zm61.834 12.323a161.307 161.307 0 0 0-61.834-12.323v2c20.956 0 41.707 4.135 61.067 12.17l.767-1.847zm52.42 35.093a161.572 161.572 0 0 0-52.42-35.093l-.767 1.847a159.567 159.567 0 0 1 51.772 34.659l1.415-1.413zm35.026 52.521a161.916 161.916 0 0 0-35.026-52.521l-1.415 1.413a159.9 159.9 0 0 1 34.592 51.872l1.849-.764zM519.394 268c0-21.259-4.179-42.31-12.299-61.951l-1.849.764A160.15 160.15 0 0 1 517.394 268h2zm24.14-.347.001.347h2l-.001-.351-2 .004zM197.236 267h-26.141v2h26.141v-2zm347.299 0h-26.141v2h26.141v-2z" mask="url(#l)"/><mask id="n" fill="#fff"><path fill-rule="evenodd" d="M241.96 219.88a126.03 126.03 0 0 0-9.545 47.885h17.12a108.838 108.838 0 0 1 8.242-41.316 108.625 108.625 0 0 1 23.472-35.225 108.262 108.262 0 0 1 35.129-23.536 108.012 108.012 0 0 1 82.874 0 108.258 108.258 0 0 1 35.128 23.536 108.593 108.593 0 0 1 23.472 35.225 108.819 108.819 0 0 1 8.242 41.316h17.121a126.048 126.048 0 0 0-9.545-47.885 125.77 125.77 0 0 0-27.184-40.795 125.385 125.385 0 0 0-40.683-27.258 125.102 125.102 0 0 0-95.977 0 125.406 125.406 0 0 0-40.683 27.258 125.784 125.784 0 0 0-27.183 40.795zm241.489 47.885a126.281 126.281 0 0 0-9.563-47.975 126.004 126.004 0 0 0-27.234-40.871 125.61 125.61 0 0 0-40.759-27.309 125.339 125.339 0 0 0-96.157 0 125.617 125.617 0 0 0-40.758 27.309 125.973 125.973 0 0 0-27.234 40.871 126.282 126.282 0 0 0-9.564 47.975V268h17.589c0-14.228 2.795-28.316 8.225-41.461a108.351 108.351 0 0 1 23.421-35.149 108.043 108.043 0 0 1 35.052-23.485 107.787 107.787 0 0 1 82.695 0 108.036 108.036 0 0 1 35.053 23.485 108.367 108.367 0 0 1 23.421 35.149A108.597 108.597 0 0 1 465.86 268h17.589v-.235z" clip-rule="evenodd"/></mask><path fill="#000319" fill-rule="evenodd" d="M241.96 219.88a126.03 126.03 0 0 0-9.545 47.885h17.12a108.838 108.838 0 0 1 8.242-41.316 108.625 108.625 0 0 1 23.472-35.225 108.262 108.262 0 0 1 35.129-23.536 108.012 108.012 0 0 1 82.874 0 108.258 108.258 0 0 1 35.128 23.536 108.593 108.593 0 0 1 23.472 35.225 108.819 108.819 0 0 1 8.242 41.316h17.121a126.048 126.048 0 0 0-9.545-47.885 125.77 125.77 0 0 0-27.184-40.795 125.385 125.385 0 0 0-40.683-27.258 125.102 125.102 0 0 0-95.977 0 125.406 125.406 0 0 0-40.683 27.258 125.784 125.784 0 0 0-27.183 40.795zm241.489 47.885a126.281 126.281 0 0 0-9.563-47.975 126.004 126.004 0 0 0-27.234-40.871 125.61 125.61 0 0 0-40.759-27.309 125.339 125.339 0 0 0-96.157 0 125.617 125.617 0 0 0-40.758 27.309 125.973 125.973 0 0 0-27.234 40.871 126.282 126.282 0 0 0-9.564 47.975V268h17.589c0-14.228 2.795-28.316 8.225-41.461a108.351 108.351 0 0 1 23.421-35.149 108.043 108.043 0 0 1 35.052-23.485 107.787 107.787 0 0 1 82.695 0 108.036 108.036 0 0 1 35.053 23.485 108.367 108.367 0 0 1 23.421 35.149A108.597 108.597 0 0 1 465.86 268h17.589v-.235z" clip-rule="evenodd"/><path fill="url(#m)" d="m232.415 267.765-1-.002-.002 1.002h1.002v-1zm9.545-47.885.924.381-.924-.381zm7.575 47.885v1h.998l.002-.998-1-.002zm8.242-41.316-.924-.382.924.382zm58.601-58.761.383.923-.383-.923zm82.874 0-.384.923.384-.923zm58.6 58.761-.924.382.924-.382zm8.242 41.316-1 .002.003.998h.997v-1zm17.121 0v1h1.002l-.002-1.002-1 .002zm-9.545-47.885.924-.382-.924.382zm-115.855-77.624v1-1zm-47.989 9.571.384.924-.384-.924zm-40.683 27.258.708.706-.708-.706zm204.743 40.705-.924.382.924-.382zm9.563 47.975 1-.002-1 .002zm-36.797-88.846.708-.706-.708.706zm-40.759-27.309.384-.923-.384.923zm-48.078-9.589v-1 1zm-48.079 9.589.384.924-.384-.924zm-40.758 27.309.708.706-.708-.706zm-27.234 40.871-.925-.382.925.382zm-9.564 47.975 1 .002-1-.002zm0 .235h-1v1h1v-1zm17.589 0v1h1v-1h-1zm8.225-41.461-.925-.382.925.382zm23.421-35.149.708.707-.708-.707zm76.4-31.732v-1 1zm41.347 8.247-.384.923.384-.923zm35.053 23.485.708-.706-.708.706zM465.86 268h-1v1h1v-1zm17.589 0v1h1v-1h-1zm-250.034-.233a125.043 125.043 0 0 1 9.469-47.506l-1.848-.763a127.024 127.024 0 0 0-9.621 48.265l2 .004zm16.12-1.002h-17.12v2h17.12v-2zm7.318-40.698a109.833 109.833 0 0 0-8.318 41.696l2 .004a107.828 107.828 0 0 1 8.166-40.936l-1.848-.764zm23.688-35.549a109.62 109.62 0 0 0-23.688 35.549l1.848.764a107.6 107.6 0 0 1 23.256-34.9l-1.416-1.413zm35.453-23.754a109.278 109.278 0 0 0-35.453 23.754l1.416 1.413a107.258 107.258 0 0 1 34.804-23.32l-.767-1.847zm41.821-8.341a109.027 109.027 0 0 0-41.821 8.341l.767 1.847a107.027 107.027 0 0 1 41.054-8.188v-2zm41.82 8.341a109.018 109.018 0 0 0-41.82-8.341v2c14.088 0 28.037 2.782 41.053 8.188l.767-1.847zm35.453 23.754a109.257 109.257 0 0 0-35.453-23.754l-.767 1.847a107.247 107.247 0 0 1 34.804 23.32l1.416-1.413zm23.689 35.549a109.606 109.606 0 0 0-23.689-35.549l-1.416 1.413a107.583 107.583 0 0 1 23.256 34.9l1.849-.764zm8.317 41.696a109.832 109.832 0 0 0-8.317-41.696l-1.849.764a107.828 107.828 0 0 1 8.166 40.936l2-.004zm16.121-.998h-17.121v2h17.121v-2zm-10.47-46.504a125.025 125.025 0 0 1 9.47 47.506l2-.004a127.043 127.043 0 0 0-9.621-48.265l-1.849.763zm-26.967-40.47a124.77 124.77 0 0 1 26.967 40.47l1.849-.763a126.755 126.755 0 0 0-27.4-41.119l-1.416 1.412zm-40.358-27.04a124.386 124.386 0 0 1 40.358 27.04l1.416-1.412a126.367 126.367 0 0 0-41.007-27.475l-.767 1.847zm-47.605-9.495a124.1 124.1 0 0 1 47.605 9.495l.767-1.847a126.099 126.099 0 0 0-48.372-9.648v2zm-47.605 9.495a124.095 124.095 0 0 1 47.605-9.495v-2c-16.6 0-33.037 3.278-48.372 9.648l.767 1.847zm-40.359 27.04a124.39 124.39 0 0 1 40.359-27.04l-.767-1.847a126.37 126.37 0 0 0-41.008 27.475l1.416 1.412zm-26.967 40.47a124.785 124.785 0 0 1 26.967-40.47l-1.416-1.412a126.768 126.768 0 0 0-27.399 41.119l1.848.763zm230.078-.089a125.267 125.267 0 0 1 9.487 47.595l2-.004a127.276 127.276 0 0 0-9.639-48.355l-1.848.764zm-27.018-40.547a125.02 125.02 0 0 1 27.018 40.547l1.848-.764a127 127 0 0 0-27.45-41.195l-1.416 1.412zm-40.435-27.091a124.605 124.605 0 0 1 40.435 27.091l1.416-1.412a126.608 126.608 0 0 0-41.083-27.526l-.768 1.847zm-47.694-9.513c16.367 0 32.573 3.232 47.694 9.513l.768-1.847a126.332 126.332 0 0 0-48.462-9.666v2zm-47.695 9.513a124.329 124.329 0 0 1 47.695-9.513v-2a126.325 126.325 0 0 0-48.462 9.666l.767 1.847zm-40.434 27.091a124.601 124.601 0 0 1 40.434-27.091l-.767-1.847a126.608 126.608 0 0 0-41.083 27.526l1.416 1.412zm-27.018 40.546a124.995 124.995 0 0 1 27.018-40.546l-1.416-1.412a127.002 127.002 0 0 0-27.451 41.195l1.849.763zm-9.488 47.596a125.296 125.296 0 0 1 9.488-47.596l-1.849-.763a127.295 127.295 0 0 0-9.639 48.355l2 .004zm0 .233v-.233l-2-.004V268h2zm23.889-41.843a109.599 109.599 0 0 0-8.3 41.843h2c0-14.097 2.769-28.056 8.149-41.079l-1.849-.764zm23.638-35.473a109.375 109.375 0 0 0-23.638 35.473l1.849.764a107.358 107.358 0 0 1 23.205-34.824l-1.416-1.413zm35.377-23.703a109.053 109.053 0 0 0-35.377 23.703l1.416 1.413a107.032 107.032 0 0 1 34.728-23.269l-.767-1.847zm41.731-8.323a108.79 108.79 0 0 0-41.731 8.323l.767 1.847a106.794 106.794 0 0 1 40.964-8.17v-2zm41.731 8.323a108.797 108.797 0 0 0-41.731-8.323v2c14.057 0 27.976 2.776 40.963 8.17l.768-1.847zm35.377 23.703a109.053 109.053 0 0 0-35.377-23.703l-.768 1.847a107.037 107.037 0 0 1 34.729 23.269l1.416-1.413zm23.637 35.473a109.388 109.388 0 0 0-23.637-35.473l-1.416 1.413a107.358 107.358 0 0 1 23.205 34.824l1.848-.764zm8.3 41.843c0-14.359-2.82-28.577-8.3-41.843l-1.848.764A107.611 107.611 0 0 1 464.86 268h2zm15.589-.233V268h2v-.237l-2 .004zM249.769 267H232.18v2h17.589v-2zm233.68 0H465.86v2h17.589v-2z" mask="url(#n)"/><mask id="p" fill="#fff"><path fill-rule="evenodd" d="M283.772 237.203a80.761 80.761 0 0 0-6.1 30.647h10.941a69.737 69.737 0 0 1 5.268-26.442 69.505 69.505 0 0 1 15.001-22.544 69.185 69.185 0 0 1 22.45-15.064 68.958 68.958 0 0 1 52.965 0 69.178 69.178 0 0 1 22.451 15.064 69.52 69.52 0 0 1 15.001 22.544 69.755 69.755 0 0 1 5.267 26.442h10.942a80.762 80.762 0 0 0-6.101-30.647 80.477 80.477 0 0 0-17.373-26.108 80.127 80.127 0 0 0-26-17.446 79.858 79.858 0 0 0-61.339 0 80.137 80.137 0 0 0-26 17.446 80.493 80.493 0 0 0-17.373 26.108zm154.335 30.647a80.91 80.91 0 0 0-6.111-30.705 80.666 80.666 0 0 0-17.406-26.157 80.251 80.251 0 0 0-26.049-17.477 79.998 79.998 0 0 0-30.726-6.138 80.006 80.006 0 0 0-30.727 6.138 80.251 80.251 0 0 0-26.049 17.477 80.647 80.647 0 0 0-17.405 26.157 80.93 80.93 0 0 0-6.112 30.705v.15h11.241a69.594 69.594 0 0 1 5.256-26.535 69.356 69.356 0 0 1 14.969-22.495 69.032 69.032 0 0 1 22.402-15.031 68.816 68.816 0 0 1 26.425-5.278 68.816 68.816 0 0 1 26.425 5.278 69.043 69.043 0 0 1 22.402 15.031 69.353 69.353 0 0 1 14.968 22.495A69.594 69.594 0 0 1 426.866 268h11.241v-.15z" clip-rule="evenodd"/></mask><path fill="#000319" fill-rule="evenodd" d="M283.772 237.203a80.761 80.761 0 0 0-6.1 30.647h10.941a69.737 69.737 0 0 1 5.268-26.442 69.505 69.505 0 0 1 15.001-22.544 69.185 69.185 0 0 1 22.45-15.064 68.958 68.958 0 0 1 52.965 0 69.178 69.178 0 0 1 22.451 15.064 69.52 69.52 0 0 1 15.001 22.544 69.755 69.755 0 0 1 5.267 26.442h10.942a80.762 80.762 0 0 0-6.101-30.647 80.477 80.477 0 0 0-17.373-26.108 80.127 80.127 0 0 0-26-17.446 79.858 79.858 0 0 0-61.339 0 80.137 80.137 0 0 0-26 17.446 80.493 80.493 0 0 0-17.373 26.108zm154.335 30.647a80.91 80.91 0 0 0-6.111-30.705 80.666 80.666 0 0 0-17.406-26.157 80.251 80.251 0 0 0-26.049-17.477 79.998 79.998 0 0 0-30.726-6.138 80.006 80.006 0 0 0-30.727 6.138 80.251 80.251 0 0 0-26.049 17.477 80.647 80.647 0 0 0-17.405 26.157 80.93 80.93 0 0 0-6.112 30.705v.15h11.241a69.594 69.594 0 0 1 5.256-26.535 69.356 69.356 0 0 1 14.969-22.495 69.032 69.032 0 0 1 22.402-15.031 68.816 68.816 0 0 1 26.425-5.278 68.816 68.816 0 0 1 26.425 5.278 69.043 69.043 0 0 1 22.402 15.031 69.353 69.353 0 0 1 14.968 22.495A69.594 69.594 0 0 1 426.866 268h11.241v-.15z" clip-rule="evenodd"/><path fill="url(#o)" d="m277.672 267.85-1-.002-.002 1.002h1.002v-1zm6.1-30.647.925.381-.925-.381zm4.841 30.647v1h.998l.002-.998-1-.002zm5.268-26.442-.924-.382.924.382zm37.451-37.608.385.924-.385-.924zm52.965 0-.384.924.384-.924zm37.452 37.608-.925.381.925-.381zm5.267 26.442-1 .002.002.998h.998v-1zm10.942 0v1h1.002l-.002-1.002-1 .002zm-6.101-30.647.925-.381-.925.381zm-74.042-49.679v1-1zm-30.67 6.125.384.924-.384-.924zm-26 17.446.709.705-.709-.705zm130.851 26.05-.925.382.925-.382zm6.111 30.705 1-.002-1 .002zm-23.517-56.862.709-.705-.709.705zm-26.049-17.477.384-.924-.384.924zm-30.726-6.138v-1 1zm-30.727 6.138.384.923-.384-.923zm-26.049 17.477.709.706-.709-.706zm-17.405 26.157-.925-.381.925.381zm-6.112 30.705 1 .001-1-.001zm0 .15h-1v1h1v-1zm11.241 0v1h1v-1h-1zm5.256-26.535-.924-.381.924.381zm14.969-22.495.708.706-.708-.706zm48.827-20.309v-1 1zm26.425 5.278-.384.923.384-.923zm22.402 15.031.708-.706-.708.706zM426.866 268h-1v1h1v-1zm11.241 0v1h1v-1h-1zm-159.435-.149a79.756 79.756 0 0 1 6.025-30.267l-1.849-.762a81.77 81.77 0 0 0-6.176 31.026l2 .003zm9.941-1.001h-10.941v2h10.941v-2zm4.344-25.824a70.73 70.73 0 0 0-5.344 26.821l2 .005a68.75 68.75 0 0 1 5.192-26.063l-1.848-.763zm15.216-22.868a70.507 70.507 0 0 0-15.216 22.868l1.848.763a68.507 68.507 0 0 1 14.786-22.22l-1.418-1.411zm22.775-15.281a70.192 70.192 0 0 0-22.775 15.281l1.418 1.411a68.171 68.171 0 0 1 22.126-14.845l-.769-1.847zm26.867-5.366a69.952 69.952 0 0 0-26.867 5.366l.769 1.847a67.942 67.942 0 0 1 26.098-5.213v-2zm26.866 5.366a69.95 69.95 0 0 0-26.866-5.366v2a67.946 67.946 0 0 1 26.098 5.213l.768-1.847zm22.775 15.281a70.181 70.181 0 0 0-22.775-15.281l-.768 1.847a68.182 68.182 0 0 1 22.126 14.845l1.417-1.411zm15.217 22.868a70.51 70.51 0 0 0-15.217-22.868l-1.417 1.411a68.52 68.52 0 0 1 14.785 22.22l1.849-.763zm5.343 26.821a70.749 70.749 0 0 0-5.343-26.821l-1.849.763a68.731 68.731 0 0 1 5.192 26.063l2-.005zm9.942-.997h-10.942v2h10.942v-2zm-7.025-29.266a79.775 79.775 0 0 1 6.025 30.267l2-.003a81.77 81.77 0 0 0-6.176-31.026l-1.849.762zM413.776 211.8a79.51 79.51 0 0 1 17.157 25.784l1.849-.762a81.503 81.503 0 0 0-17.589-26.433l-1.417 1.411zM388.1 194.573a79.118 79.118 0 0 1 25.676 17.227l1.417-1.411a81.128 81.128 0 0 0-26.325-17.663l-.768 1.847zm-30.285-6.049a78.851 78.851 0 0 1 30.285 6.049l.768-1.847a80.852 80.852 0 0 0-31.053-6.202v2zm-30.286 6.049a78.852 78.852 0 0 1 30.286-6.049v-2a80.853 80.853 0 0 0-31.054 6.202l.768 1.847zM301.854 211.8a79.125 79.125 0 0 1 25.675-17.227l-.768-1.847a81.128 81.128 0 0 0-26.325 17.663l1.418 1.411zm-17.157 25.784a79.477 79.477 0 0 1 17.157-25.784l-1.418-1.411a81.5 81.5 0 0 0-17.588 26.433l1.849.762zm146.374-.057a79.915 79.915 0 0 1 6.036 30.324l2-.003a81.897 81.897 0 0 0-6.187-31.084l-1.849.763zm-17.189-25.833a79.652 79.652 0 0 1 17.189 25.833l1.849-.763a81.658 81.658 0 0 0-17.621-26.481l-1.417 1.411zm-25.725-17.26a79.264 79.264 0 0 1 25.725 17.26l1.417-1.411a81.28 81.28 0 0 0-26.374-17.696l-.768 1.847zm-30.342-6.061a79.008 79.008 0 0 1 30.342 6.061l.768-1.847a81.009 81.009 0 0 0-31.11-6.214v2zm-30.343 6.061a79.009 79.009 0 0 1 30.343-6.061v-2a81.014 81.014 0 0 0-31.111 6.214l.768 1.847zm-25.724 17.26a79.26 79.26 0 0 1 25.724-17.26l-.768-1.847a81.275 81.275 0 0 0-26.373 17.696l1.417 1.411zm-17.19 25.833a79.671 79.671 0 0 1 17.19-25.833l-1.417-1.411a81.644 81.644 0 0 0-17.622 26.481l1.849.763zm-6.036 30.324a79.915 79.915 0 0 1 6.036-30.324l-1.849-.763a81.935 81.935 0 0 0-6.187 31.084l2 .003zm0 .149v-.149l-2-.003V268h2zm14.573-26.916A70.586 70.586 0 0 0 287.763 268h2a68.58 68.58 0 0 1 5.181-26.154l-1.849-.762zm15.184-22.82a70.352 70.352 0 0 0-15.184 22.82l1.849.762a68.354 68.354 0 0 1 14.752-22.17l-1.417-1.412zm22.727-15.248a70.024 70.024 0 0 0-22.727 15.248l1.417 1.412a68.04 68.04 0 0 1 22.078-14.814l-.768-1.846zm26.809-5.355c-9.2 0-18.31 1.82-26.809 5.355l.768 1.846a67.804 67.804 0 0 1 26.041-5.201v-2zm26.809 5.355a69.81 69.81 0 0 0-26.809-5.355v2a67.804 67.804 0 0 1 26.041 5.201l.768-1.846zm22.726 15.248a70.02 70.02 0 0 0-22.726-15.248l-.768 1.846a68.026 68.026 0 0 1 22.077 14.814l1.417-1.412zm15.185 22.82a70.355 70.355 0 0 0-15.185-22.82l-1.417 1.412a68.341 68.341 0 0 1 14.753 22.17l1.849-.762zM427.866 268a70.585 70.585 0 0 0-5.331-26.916l-1.849.762a68.597 68.597 0 0 1 5.18 26.154h2zm9.241-.149V268h2v-.152l-2 .003zM288.763 267h-11.241v2h11.241v-2zm149.344 0h-11.241v2h11.241v-2z" mask="url(#p)"/><g filter="url(#q)"><ellipse cx="358.13" cy="309.458" fill="#003BFF" rx="131.845" ry="131.779"/></g><path fill="url(#r)" d="M-11-7h739v275H-11z"/><path fill="url(#s)" d="M.918-46.808H717V268H.918z"/></g><defs><linearGradient id="b" x1="357.815" x2="357.815" y1="-70.254" y2="267.685" gradientUnits="userSpaceOnUse"><stop offset=".304" stop-color="#00094D"/><stop offset="1" stop-color="#000633" stop-opacity="0"/></linearGradient><linearGradient id="c" x1="357.815" x2="357.815" y1="12.262" y2="268" gradientUnits="userSpaceOnUse"><stop offset=".304" stop-color="#00094D"/><stop offset="1" stop-color="#000633" stop-opacity="0"/></linearGradient><linearGradient id="d" x1="357.815" x2="357.815" y1="80.921" y2="268" gradientUnits="userSpaceOnUse"><stop offset=".304" stop-color="#00094D"/><stop offset="1" stop-color="#000633" stop-opacity="0"/></linearGradient><linearGradient id="e" x1="357.815" x2="357.815" y1="142.021" y2="268" gradientUnits="userSpaceOnUse"><stop offset=".304" stop-color="#00094D"/><stop offset="1" stop-color="#000633" stop-opacity="0"/></linearGradient><linearGradient id="f" x1="357.815" x2="357.815" y1="187.373" y2="268" gradientUnits="userSpaceOnUse"><stop offset=".304" stop-color="#00094D"/><stop offset="1" stop-color="#000633" stop-opacity="0"/></linearGradient><linearGradient id="g" x1="357.815" x2="357.815" y1="-70.254" y2="267.685" gradientUnits="userSpaceOnUse"><stop offset=".304" stop-color="#00094D"/><stop offset="1" stop-color="#000633" stop-opacity="0"/></linearGradient><linearGradient id="i" x1="357.815" x2="357.815" y1="12.262" y2="268" gradientUnits="userSpaceOnUse"><stop offset=".304" stop-color="#00094D"/><stop offset="1" stop-color="#000633" stop-opacity="0"/></linearGradient><linearGradient id="k" x1="357.815" x2="357.815" y1="80.921" y2="268" gradientUnits="userSpaceOnUse"><stop offset=".304" stop-color="#00094D"/><stop offset="1" stop-color="#000633" stop-opacity="0"/></linearGradient><linearGradient id="m" x1="357.815" x2="357.815" y1="142.021" y2="268" gradientUnits="userSpaceOnUse"><stop offset=".304" stop-color="#00094D"/><stop offset="1" stop-color="#000633" stop-opacity="0"/></linearGradient><linearGradient id="o" x1="357.815" x2="357.815" y1="187.373" y2="268" gradientUnits="userSpaceOnUse"><stop offset=".304" stop-color="#00094D"/><stop offset="1" stop-color="#000633" stop-opacity="0"/></linearGradient><linearGradient id="s" x1="358.959" x2="358.959" y1="-52.711" y2="299.799" gradientUnits="userSpaceOnUse"><stop offset=".407" stop-color="#00020F" stop-opacity="0"/><stop offset="1" stop-color="#00020F"/></linearGradient><radialGradient id="r" cx="0" cy="0" r="1" gradientTransform="scale(555.271 206.63) rotate(90 .04 .606)" gradientUnits="userSpaceOnUse"><stop offset=".093" stop-color="#00020F" stop-opacity="0"/><stop offset=".716" stop-color="#00020F"/></radialGradient><clipPath id="a"><path fill="#fff" d="M0 0h717v268H0z"/></clipPath><filter id="q" width="989.49" height="989.358" x="-136.615" y="-185.221" color-interpolation-filters="sRGB" filterUnits="userSpaceOnUse"><feFlood flood-opacity="0" result="BackgroundImageFix"/><feBlend in="SourceGraphic" in2="BackgroundImageFix" result="shape"/><feGaussianBlur result="effect1_foregroundBlur_2211_873" stdDeviation="181.45"/></filter></defs></svg>