<svg xmlns="http://www.w3.org/2000/svg" width="616" height="556" fill="none"><g clip-path="url(#a)"><g clip-path="url(#b)"><rect width="19.885" height="217.075" x="351.982" y="260.408" fill="#06040B" rx="4.5" transform="rotate(38.263 351.982 260.408)"/><path fill="url(#c)" d="M309.396 314.403h19.885V462.71h-19.885z" transform="rotate(38.263 309.396 314.403)"/><path fill="url(#d)" d="M309.396 314.403h19.885V462.71h-19.885z" transform="rotate(38.263 309.396 314.403)"/><path fill="#000B5C" d="m331.459 286.43 15.613 12.314-22.062 27.974-15.614-12.314z"/><g filter="url(#e)"><path fill="url(#f)" d="M351.982 260.408h19.885v64.625h-19.885z" transform="rotate(38.263 351.982 260.408)"/></g></g><g filter="url(#g)"><circle cx="358.694" cy="267.285" r="70.607" fill="#003BFF" transform="rotate(38.263 358.694 267.285)"/></g><g filter="url(#h)"><circle cx="346.865" cy="282.134" r="25.326" fill="#fff" transform="rotate(38.263 346.865 282.134)"/></g><path fill="url(#i)" d="M340.553 389.25H-.5v115.125h506.625c0-7.308-3.48-14.179-9.371-18.504L384.933 403.79a75 75 0 0 0-44.38-14.54"/><path stroke="url(#j)" stroke-width=".75" d="M340.553 389.25H-.5v115.125h506.625c0-7.308-3.48-14.179-9.371-18.504L384.933 403.79a75 75 0 0 0-44.38-14.54z"/><path fill="url(#k)" d="M0 267h506v289H0z"/></g><defs><linearGradient id="c" x1="300.401" x2="344.264" y1="399.29" y2="395.527" gradientUnits="userSpaceOnUse"><stop stop-color="#291B4B"/><stop offset=".359" stop-color="#0A0713"/><stop offset=".609" stop-color="#0A0713"/><stop offset="1" stop-color="#291B4B"/></linearGradient><linearGradient id="d" x1="316.734" x2="388.337" y1="835.09" y2="323.733" gradientUnits="userSpaceOnUse"><stop stop-color="#291B4B"/><stop offset=".888" stop-color="#291B4B" stop-opacity="0"/></linearGradient><linearGradient id="f" x1="351.319" x2="371.867" y1="292.72" y2="292.72" gradientUnits="userSpaceOnUse"><stop stop-color="#1A4FFF"/><stop offset=".377" stop-color="#5279F9"/><stop offset=".761" stop-color="#416AF1"/><stop offset=".914" stop-color="#2E5AEA"/></linearGradient><linearGradient id="i" x1="234.25" x2="234.25" y1="389.25" y2="524.625" gradientUnits="userSpaceOnUse"><stop offset=".263" stop-color="#00031A"/><stop offset=".772" stop-color="#00020F"/></linearGradient><linearGradient id="j" x1="197.125" x2="197.125" y1="504" y2="389.25" gradientUnits="userSpaceOnUse"><stop stop-color="#000A4D" stop-opacity="0"/><stop offset="1" stop-color="#171D45"/></linearGradient><linearGradient id="k" x1="253" x2="253" y1="261.581" y2="585.192" gradientUnits="userSpaceOnUse"><stop offset=".4" stop-color="#00020F" stop-opacity="0"/><stop offset="1" stop-color="#00020F"/></linearGradient><filter id="e" width="57.884" height="65.307" x="311.961" y="260.408" color-interpolation-filters="sRGB" filterUnits="userSpaceOnUse"><feFlood flood-opacity="0" result="BackgroundImageFix"/><feBlend in="SourceGraphic" in2="BackgroundImageFix" result="shape"/><feColorMatrix in="SourceAlpha" result="hardAlpha" values="0 0 0 0 0 0 0 0 0 0 0 0 0 0 0 0 0 0 127 0"/><feOffset dx="2.25" dy="2.25"/><feGaussianBlur stdDeviation="2.025"/><feComposite in2="hardAlpha" k2="-1" k3="1" operator="arithmetic"/><feColorMatrix values="0 0 0 0 1 0 0 0 0 1 0 0 0 0 1 0 0 0 0.5 0"/><feBlend in2="shape" result="effect1_innerShadow_2178_499"/></filter><filter id="g" width="591.221" height="591.221" x="63.084" y="-28.326" color-interpolation-filters="sRGB" filterUnits="userSpaceOnUse"><feFlood flood-opacity="0" result="BackgroundImageFix"/><feBlend in="SourceGraphic" in2="BackgroundImageFix" result="shape"/><feGaussianBlur result="effect1_foregroundBlur_2178_499" stdDeviation="112.5"/></filter><filter id="h" width="252.104" height="252.104" x="220.813" y="156.082" color-interpolation-filters="sRGB" filterUnits="userSpaceOnUse"><feFlood flood-opacity="0" result="BackgroundImageFix"/><feBlend in="SourceGraphic" in2="BackgroundImageFix" result="shape"/><feGaussianBlur result="effect1_foregroundBlur_2178_499" stdDeviation="50.362"/></filter><clipPath id="a"><path fill="#fff" d="M0 0h616v556H0z"/></clipPath><clipPath id="b"><rect width="19.885" height="217.075" x="351.982" y="260.408" fill="#fff" rx="4.5" transform="rotate(38.263 351.982 260.408)"/></clipPath></defs></svg>