<svg xmlns="http://www.w3.org/2000/svg" width="616" height="556" fill="none"><g clip-path="url(#a)"><g clip-path="url(#b)"><rect width="19.885" height="217.075" fill="#06040B" rx="4.5" transform="scale(-1 1)rotate(38.263 -507.353 -250.343)"/><path fill="url(#c)" d="M0 0h19.885v148.307H0z" transform="scale(-1 1)rotate(38.263 -606.473 -284.728)"/><path fill="url(#d)" d="M0 0h19.885v148.307H0z" transform="scale(-1 1)rotate(38.263 -606.473 -284.728)"/><path fill="#000B5C" d="m284.541 286.43-15.613 12.314 22.062 27.974 15.614-12.314z"/><g filter="url(#e)"><path fill="url(#f)" d="M0 0h19.885v64.625H0z" transform="scale(-1 1)rotate(38.263 -507.353 -250.343)"/></g></g><g filter="url(#g)"><circle cx="70.607" cy="70.607" r="70.607" fill="#003BFF" transform="scale(-1 1)rotate(38.263 -376.833 -303.698)"/></g><g filter="url(#h)"><circle cx="25.326" cy="25.326" r="25.326" fill="#fff" transform="scale(-1 1)rotate(38.263 -492.06 -270.697)"/></g><path fill="url(#i)" d="M275.447 389.25H616.5v115.125H109.875c0-7.308 3.48-14.179 9.371-18.504l111.821-82.081a75 75 0 0 1 44.38-14.54"/><path stroke="url(#j)" stroke-width=".75" d="M275.447 389.25H616.5v115.125H109.875c0-7.308 3.48-14.179 9.371-18.504l111.821-82.081a75 75 0 0 1 44.38-14.54z"/><path fill="url(#k)" d="M0 0h506v289H0z" transform="matrix(-1 0 0 1 616 267)"/></g><defs><linearGradient id="c" x1="-8.995" x2="34.868" y1="84.886" y2="81.123" gradientUnits="userSpaceOnUse"><stop stop-color="#291B4B"/><stop offset=".359" stop-color="#0A0713"/><stop offset=".609" stop-color="#0A0713"/><stop offset="1" stop-color="#291B4B"/></linearGradient><linearGradient id="d" x1="7.338" x2="78.941" y1="520.686" y2="9.33" gradientUnits="userSpaceOnUse"><stop stop-color="#291B4B"/><stop offset=".888" stop-color="#291B4B" stop-opacity="0"/></linearGradient><linearGradient id="f" x1="-.663" x2="19.885" y1="32.313" y2="32.313" gradientUnits="userSpaceOnUse"><stop stop-color="#1A4FFF"/><stop offset=".377" stop-color="#5279F9"/><stop offset=".761" stop-color="#416AF1"/><stop offset=".914" stop-color="#2E5AEA"/></linearGradient><linearGradient id="i" x1="381.75" x2="381.75" y1="389.25" y2="524.625" gradientUnits="userSpaceOnUse"><stop offset=".263" stop-color="#00031A"/><stop offset=".772" stop-color="#00020F"/></linearGradient><linearGradient id="j" x1="418.875" x2="418.875" y1="504" y2="389.25" gradientUnits="userSpaceOnUse"><stop stop-color="#000A4D" stop-opacity="0"/><stop offset="1" stop-color="#171D45"/></linearGradient><linearGradient id="k" x1="253" x2="253" y1="-5.419" y2="318.192" gradientUnits="userSpaceOnUse"><stop offset=".4" stop-color="#00020F" stop-opacity="0"/><stop offset="1" stop-color="#00020F"/></linearGradient><filter id="e" width="57.883" height="65.307" x="248.405" y="260.408" color-interpolation-filters="sRGB" filterUnits="userSpaceOnUse"><feFlood flood-opacity="0" result="BackgroundImageFix"/><feBlend in="SourceGraphic" in2="BackgroundImageFix" result="shape"/><feColorMatrix in="SourceAlpha" result="hardAlpha" values="0 0 0 0 0 0 0 0 0 0 0 0 0 0 0 0 0 0 127 0"/><feOffset dx="2.25" dy="2.25"/><feGaussianBlur stdDeviation="2.025"/><feComposite in2="hardAlpha" k2="-1" k3="1" operator="arithmetic"/><feColorMatrix values="0 0 0 0 1 0 0 0 0 1 0 0 0 0 1 0 0 0 0.5 0"/><feBlend in2="shape" result="effect1_innerShadow_2178_500"/></filter><filter id="g" width="591.221" height="591.221" x="-38.304" y="-28.326" color-interpolation-filters="sRGB" filterUnits="userSpaceOnUse"><feFlood flood-opacity="0" result="BackgroundImageFix"/><feBlend in="SourceGraphic" in2="BackgroundImageFix" result="shape"/><feGaussianBlur result="effect1_foregroundBlur_2178_500" stdDeviation="112.5"/></filter><filter id="h" width="252.104" height="252.104" x="143.083" y="156.082" color-interpolation-filters="sRGB" filterUnits="userSpaceOnUse"><feFlood flood-opacity="0" result="BackgroundImageFix"/><feBlend in="SourceGraphic" in2="BackgroundImageFix" result="shape"/><feGaussianBlur result="effect1_foregroundBlur_2178_500" stdDeviation="50.362"/></filter><clipPath id="a"><path fill="#fff" d="M0 0h616v556H0z"/></clipPath><clipPath id="b"><rect width="19.885" height="217.075" fill="#fff" rx="4.5" transform="scale(-1 1)rotate(38.263 -507.353 -250.343)"/></clipPath></defs></svg>