<svg xmlns="http://www.w3.org/2000/svg" width="313" height="231" fill="none"><path stroke="url(#a)" stroke-opacity=".05" d="M19.294 1H1v19.083M19.294 1v19.083m0-19.083h18.294M19.294 20.083H1m18.294 0h18.294m-18.294 0v19.084M1 20.083v19.084M37.588 1v19.083m0-19.083h18.294M37.588 20.083h18.294m-18.294 0v19.084M55.882 1v19.083m0-19.083h18.295M55.882 20.083h18.295m-18.295 0v19.084M74.177 1v19.083m0-19.083H92.47M74.177 20.083H92.47m-18.294 0v19.084M92.47 1v19.083M92.47 1h18.294M92.471 20.083h18.294m-18.294 0v19.084M110.765 1v19.083m0-19.083h18.294m-18.294 19.083h18.294m-18.294 0v19.084M129.059 1v19.083m0-19.083h18.294m-18.294 19.083h18.294m-18.294 0v19.084M147.353 1v19.083m0-19.083h18.294m-18.294 19.083h18.294m-18.294 0v19.084M165.647 1v19.083m0-19.083h18.294m-18.294 19.083h18.294m-18.294 0v19.084M183.941 1v19.083m0-19.083h18.294m-18.294 19.083h18.294m-18.294 0v19.084M202.235 1v19.083m0-19.083h18.294m-18.294 19.083h18.294m-18.294 0v19.084M220.529 1v19.083m0-19.083h18.295m-18.295 19.083h18.295m-18.295 0v19.084M238.824 1v19.083m0-19.083h18.294m-18.294 19.083h18.294m-18.294 0v19.084M257.118 1v19.083m0-19.083h18.294m-18.294 19.083h18.294m-18.294 0v19.084M275.412 1v19.083m0-19.083h18.294m-18.294 19.083h18.294m-18.294 0v19.084M293.706 1v19.083m0-19.083H312v19.083m-18.294 0H312m-18.294 0v19.084M312 20.083v19.084m-292.706 0H1m18.294 0h18.294m-18.294 0V58.25M1 39.167V58.25m36.588-19.083h18.294m-18.294 0V58.25m18.294-19.083h18.295m-18.295 0V58.25m18.295-19.083H92.47m-18.294 0V58.25M92.47 39.167h18.294m-18.294 0V58.25m18.294-19.083h18.294m-18.294 0V58.25m18.294-19.083h18.294m-18.294 0V58.25m18.294-19.083h18.294m-18.294 0V58.25m18.294-19.083h18.294m-18.294 0V58.25m18.294-19.083h18.294m-18.294 0V58.25m18.294-19.083h18.294m-18.294 0V58.25m18.294-19.083h18.295m-18.295 0V58.25m18.295-19.083h18.294m-18.294 0V58.25m18.294-19.083h18.294m-18.294 0V58.25m18.294-19.083h18.294m-18.294 0V58.25m18.294-19.083H312m-18.294 0V58.25M312 39.167V58.25m-292.706 0H1m18.294 0h18.294m-18.294 0v19.083M1 58.25v19.083M37.588 58.25h18.294m-18.294 0v19.083M55.882 58.25h18.295m-18.295 0v19.083M74.177 58.25H92.47m-18.294 0v19.083M92.47 58.25h18.294m-18.294 0v19.083m18.294-19.083h18.294m-18.294 0v19.083m18.294-19.083h18.294m-18.294 0v19.083m18.294-19.083h18.294m-18.294 0v19.083m18.294-19.083h18.294m-18.294 0v19.083M183.94 58.25h18.294m-18.294 0v19.083m18.294-19.083h18.294m-18.294 0v19.083m18.294-19.083h18.295m-18.295 0v19.083m18.295-19.083h18.294m-18.294 0v19.083m18.294-19.083h18.294m-18.294 0v19.083m18.294-19.083h18.294m-18.294 0v19.083m18.294-19.083H312m-18.294 0v19.083M312 58.25v19.083m-292.706 0H1m18.294 0h18.294m-18.294 0v19.084M1 77.333v19.084m36.588-19.084h18.294m-18.294 0v19.084m18.294-19.084h18.295m-18.295 0v19.084m18.295-19.084H92.47m-18.294 0v19.084M92.47 77.333h18.294m-18.294 0v19.084m18.294-19.084h18.294m-18.294 0v19.084m18.294-19.084h18.294m-18.294 0v19.084m18.294-19.084h18.294m-18.294 0v19.084m18.294-19.084h18.294m-18.294 0v19.084m18.294-19.084h18.294m-18.294 0v19.084m18.294-19.084h18.294m-18.294 0v19.084m18.294-19.084h18.295m-18.295 0v19.084m18.295-19.084h18.294m-18.294 0v19.084m18.294-19.084h18.294m-18.294 0v19.084m18.294-19.084h18.294m-18.294 0v19.084m18.294-19.084H312m-18.294 0v19.084M312 77.333v19.084m-292.706 0H1m18.294 0h18.294m-18.294 0V115.5M1 96.417V115.5m36.588-19.083h18.294m-18.294 0V115.5m18.294-19.083h18.295m-18.295 0V115.5m18.295-19.083H92.47m-18.294 0V115.5M92.47 96.417h18.294m-18.294 0V115.5m18.294-19.083h18.294m-18.294 0V115.5m18.294-19.083h18.294m-18.294 0V115.5m18.294-19.083h18.294m-18.294 0V115.5m18.294-19.083h18.294m-18.294 0V115.5m18.294-19.083h18.294m-18.294 0V115.5m18.294-19.083h18.294m-18.294 0V115.5m18.294-19.083h18.295m-18.295 0V115.5m18.295-19.083h18.294m-18.294 0V115.5m18.294-19.083h18.294m-18.294 0V115.5m18.294-19.083h18.294m-18.294 0V115.5m18.294-19.083H312m-18.294 0V115.5M312 96.417V115.5m-292.706 0H1m18.294 0h18.294m-18.294 0v19.083M1 115.5v19.083M37.588 115.5h18.294m-18.294 0v19.083M55.882 115.5h18.295m-18.295 0v19.083M74.177 115.5H92.47m-18.294 0v19.083M92.47 115.5h18.294m-18.294 0v19.083m18.294-19.083h18.294m-18.294 0v19.083m18.294-19.083h18.294m-18.294 0v19.083m18.294-19.083h18.294m-18.294 0v19.083m18.294-19.083h18.294m-18.294 0v19.083M183.94 115.5h18.294m-18.294 0v19.083m18.294-19.083h18.294m-18.294 0v19.083m18.294-19.083h18.295m-18.295 0v19.083m18.295-19.083h18.294m-18.294 0v19.083m18.294-19.083h18.294m-18.294 0v19.083m18.294-19.083h18.294m-18.294 0v19.083m18.294-19.083H312m-18.294 0v19.083M312 115.5v19.083m-292.706 0H1m18.294 0h18.294m-18.294 0v19.084M1 134.583v19.084m36.588-19.084h18.294m-18.294 0v19.084m18.294-19.084h18.295m-18.295 0v19.084m18.295-19.084H92.47m-18.294 0v19.084m18.294-19.084h18.294m-18.294 0v19.084m18.294-19.084h18.294m-18.294 0v19.084m18.294-19.084h18.294m-18.294 0v19.084m18.294-19.084h18.294m-18.294 0v19.084m18.294-19.084h18.294m-18.294 0v19.084m18.294-19.084h18.294m-18.294 0v19.084m18.294-19.084h18.294m-18.294 0v19.084m18.294-19.084h18.295m-18.295 0v19.084m18.295-19.084h18.294m-18.294 0v19.084m18.294-19.084h18.294m-18.294 0v19.084m18.294-19.084h18.294m-18.294 0v19.084m18.294-19.084H312m-18.294 0v19.084M312 134.583v19.084m-292.706 0H1m18.294 0h18.294m-18.294 0v19.083M1 153.667v19.083m36.588-19.083h18.294m-18.294 0v19.083m18.294-19.083h18.295m-18.295 0v19.083m18.295-19.083H92.47m-18.294 0v19.083m18.294-19.083h18.294m-18.294 0v19.083m18.294-19.083h18.294m-18.294 0v19.083m18.294-19.083h18.294m-18.294 0v19.083m18.294-19.083h18.294m-18.294 0v19.083m18.294-19.083h18.294m-18.294 0v19.083m18.294-19.083h18.294m-18.294 0v19.083m18.294-19.083h18.294m-18.294 0v19.083m18.294-19.083h18.295m-18.295 0v19.083m18.295-19.083h18.294m-18.294 0v19.083m18.294-19.083h18.294m-18.294 0v19.083m18.294-19.083h18.294m-18.294 0v19.083m18.294-19.083H312m-18.294 0v19.083M312 153.667v19.083m-292.706 0H1m18.294 0h18.294m-18.294 0v19.083M1 172.75v19.083m36.588-19.083h18.294m-18.294 0v19.083m18.294-19.083h18.295m-18.295 0v19.083m18.295-19.083H92.47m-18.294 0v19.083M92.47 172.75h18.294m-18.294 0v19.083m18.294-19.083h18.294m-18.294 0v19.083m18.294-19.083h18.294m-18.294 0v19.083m18.294-19.083h18.294m-18.294 0v19.083m18.294-19.083h18.294m-18.294 0v19.083m18.294-19.083h18.294m-18.294 0v19.083m18.294-19.083h18.294m-18.294 0v19.083m18.294-19.083h18.295m-18.295 0v19.083m18.295-19.083h18.294m-18.294 0v19.083m18.294-19.083h18.294m-18.294 0v19.083m18.294-19.083h18.294m-18.294 0v19.083m18.294-19.083H312m-18.294 0v19.083M312 172.75v19.083m-292.706 0H1m18.294 0h18.294m-18.294 0v19.084M1 191.833v19.084m36.588-19.084h18.294m-18.294 0v19.084m18.294-19.084h18.295m-18.295 0v19.084m18.295-19.084H92.47m-18.294 0v19.084m18.294-19.084h18.294m-18.294 0v19.084m18.294-19.084h18.294m-18.294 0v19.084m18.294-19.084h18.294m-18.294 0v19.084m18.294-19.084h18.294m-18.294 0v19.084m18.294-19.084h18.294m-18.294 0v19.084m18.294-19.084h18.294m-18.294 0v19.084m18.294-19.084h18.294m-18.294 0v19.084m18.294-19.084h18.295m-18.295 0v19.084m18.295-19.084h18.294m-18.294 0v19.084m18.294-19.084h18.294m-18.294 0v19.084m18.294-19.084h18.294m-18.294 0v19.084m18.294-19.084H312m-18.294 0v19.084M312 191.833v19.084m-292.706 0H1m18.294 0h18.294m-18.294 0V230M1 210.917V230h18.294m18.294-19.083h18.294m-18.294 0V230m18.294-19.083h18.295m-18.295 0V230m18.295-19.083H92.47m-18.294 0V230m18.294-19.083h18.294m-18.294 0V230m18.294-19.083h18.294m-18.294 0V230m18.294-19.083h18.294m-18.294 0V230m18.294-19.083h18.294m-18.294 0V230m18.294-19.083h18.294m-18.294 0V230m18.294-19.083h18.294m-18.294 0V230m18.294-19.083h18.294m-18.294 0V230m18.294-19.083h18.295m-18.295 0V230m18.295-19.083h18.294m-18.294 0V230m18.294-19.083h18.294m-18.294 0V230m18.294-19.083h18.294m-18.294 0V230m18.294-19.083H312m-18.294 0V230M312 210.917V230h-18.294m-274.412 0h18.294m0 0h18.294m0 0h18.295m0 0H92.47m0 0h18.294m0 0h18.294m0 0h18.294m0 0h18.294m0 0h18.294m0 0h18.294m0 0h18.294m0 0h18.295m0 0h18.294m0 0h18.294m0 0h18.294"/><defs><radialGradient id="a" cx="0" cy="0" r="1" gradientTransform="matrix(-.49993 113.7549 -163.87742 -.7202 157 116)" gradientUnits="userSpaceOnUse"><stop stop-color="#B5D3FD"/><stop offset=".884" stop-color="#B5D3FD" stop-opacity="0"/></radialGradient></defs></svg>