<svg xmlns="http://www.w3.org/2000/svg" width="316" height="209" fill="none"><path stroke="url(#a)" stroke-opacity=".1" d="M19.53 0H1v19.25M19.53 0v19.25m0-19.25h18.529m-18.53 19.25H1m18.53 0h18.529m-18.53 0V38.5M1 19.25V38.5M38.059 0v19.25m0-19.25h18.53m-18.53 19.25h18.53m-18.53 0V38.5M56.589 0v19.25m0-19.25h18.529m-18.53 19.25h18.53m-18.53 0V38.5M75.118 0v19.25m0-19.25h18.53m-18.53 19.25h18.53m-18.53 0V38.5M93.648 0v19.25m0-19.25h18.528M93.647 19.25h18.529m-18.529 0V38.5M112.176 0v19.25m0-19.25h18.53m-18.53 19.25h18.53m-18.53 0V38.5M130.706 0v19.25m0-19.25h18.529m-18.529 19.25h18.529m-18.529 0V38.5M149.235 0v19.25m0-19.25h18.53m-18.53 19.25h18.53m-18.53 0V38.5M167.765 0v19.25m0-19.25h18.529m-18.529 19.25h18.529m-18.529 0V38.5M186.294 0v19.25m0-19.25h18.53m-18.53 19.25h18.53m-18.53 0V38.5M204.824 0v19.25m0-19.25h18.529m-18.529 19.25h18.529m-18.529 0V38.5M223.353 0v19.25m0-19.25h18.529m-18.529 19.25h18.529m-18.529 0V38.5M241.882 0v19.25m0-19.25h18.53m-18.53 19.25h18.53m-18.53 0V38.5M260.412 0v19.25m0-19.25h18.529m-18.529 19.25h18.529m-18.529 0V38.5M278.941 0v19.25m0-19.25h18.53m-18.53 19.25h18.53m-18.53 0V38.5M297.471 0v19.25m0-19.25H316v19.25m-18.529 0H316m-18.529 0V38.5M316 19.25V38.5m-296.47 0H1m18.53 0h18.529m-18.53 0v19.25M1 38.5v19.25M38.059 38.5h18.53m-18.53 0v19.25m18.53-19.25h18.529m-18.53 0v19.25m18.53-19.25h18.53m-18.53 0v19.25m18.53-19.25h18.528m-18.529 0v19.25m18.529-19.25h18.53m-18.53 0v19.25m18.53-19.25h18.529m-18.529 0v19.25m18.529-19.25h18.53m-18.53 0v19.25m18.53-19.25h18.529m-18.529 0v19.25m18.529-19.25h18.53m-18.53 0v19.25m18.53-19.25h18.529m-18.529 0v19.25m18.529-19.25h18.529m-18.529 0v19.25m18.529-19.25h18.53m-18.53 0v19.25m18.53-19.25h18.529m-18.529 0v19.25m18.529-19.25h18.53m-18.53 0v19.25m18.53-19.25H316m-18.529 0v19.25M316 38.5v19.25m-296.47 0H1m18.53 0h18.529m-18.53 0V77M1 57.75V77m37.059-19.25h18.53m-18.53 0V77m18.53-19.25h18.529m-18.53 0V77m18.53-19.25h18.53m-18.53 0V77m18.53-19.25h18.528m-18.529 0V77m18.529-19.25h18.53m-18.53 0V77m18.53-19.25h18.529m-18.529 0V77m18.529-19.25h18.53m-18.53 0V77m18.53-19.25h18.529m-18.529 0V77m18.529-19.25h18.53m-18.53 0V77m18.53-19.25h18.529m-18.529 0V77m18.529-19.25h18.529m-18.529 0V77m18.529-19.25h18.53m-18.53 0V77m18.53-19.25h18.529m-18.529 0V77m18.529-19.25h18.53m-18.53 0V77m18.53-19.25H316m-18.529 0V77M316 57.75V77M19.53 77H1m18.53 0h18.529m-18.53 0v19.25M1 77v19.25M38.059 77h18.53m-18.53 0v19.25M56.589 77h18.529m-18.53 0v19.25M75.118 77h18.53m-18.53 0v19.25M93.648 77h18.528m-18.529 0v19.25M112.176 77h18.53m-18.53 0v19.25M130.706 77h18.529m-18.529 0v19.25M149.235 77h18.53m-18.53 0v19.25M167.765 77h18.529m-18.529 0v19.25M186.294 77h18.53m-18.53 0v19.25M204.824 77h18.529m-18.529 0v19.25M223.353 77h18.529m-18.529 0v19.25M241.882 77h18.53m-18.53 0v19.25M260.412 77h18.529m-18.529 0v19.25M278.941 77h18.53m-18.53 0v19.25M297.471 77H316m-18.529 0v19.25M316 77v19.25m-296.47 0H1m18.53 0h18.529m-18.53 0v19.25M1 96.25v19.25m37.059-19.25h18.53m-18.53 0v19.25m18.53-19.25h18.529m-18.53 0v19.25m18.53-19.25h18.53m-18.53 0v19.25m18.53-19.25h18.528m-18.529 0v19.25m18.529-19.25h18.53m-18.53 0v19.25m18.53-19.25h18.529m-18.529 0v19.25m18.529-19.25h18.53m-18.53 0v19.25m18.53-19.25h18.529m-18.529 0v19.25m18.529-19.25h18.53m-18.53 0v19.25m18.53-19.25h18.529m-18.529 0v19.25m18.529-19.25h18.529m-18.529 0v19.25m18.529-19.25h18.53m-18.53 0v19.25m18.53-19.25h18.529m-18.529 0v19.25m18.529-19.25h18.53m-18.53 0v19.25m18.53-19.25H316m-18.529 0v19.25M316 96.25v19.25m-296.47 0H1m18.53 0h18.529m-18.53 0v19.25M1 115.5v19.25m37.059-19.25h18.53m-18.53 0v19.25m18.53-19.25h18.529m-18.53 0v19.25m18.53-19.25h18.53m-18.53 0v19.25m18.53-19.25h18.528m-18.529 0v19.25m18.529-19.25h18.53m-18.53 0v19.25m18.53-19.25h18.529m-18.529 0v19.25m18.529-19.25h18.53m-18.53 0v19.25m18.53-19.25h18.529m-18.529 0v19.25m18.529-19.25h18.53m-18.53 0v19.25m18.53-19.25h18.529m-18.529 0v19.25m18.529-19.25h18.529m-18.529 0v19.25m18.529-19.25h18.53m-18.53 0v19.25m18.53-19.25h18.529m-18.529 0v19.25m18.529-19.25h18.53m-18.53 0v19.25m18.53-19.25H316m-18.529 0v19.25M316 115.5v19.25m-296.47 0H1m18.53 0h18.529m-18.53 0V154M1 134.75V154m37.059-19.25h18.53m-18.53 0V154m18.53-19.25h18.529m-18.53 0V154m18.53-19.25h18.53m-18.53 0V154m18.53-19.25h18.528m-18.529 0V154m18.529-19.25h18.53m-18.53 0V154m18.53-19.25h18.529m-18.529 0V154m18.529-19.25h18.53m-18.53 0V154m18.53-19.25h18.529m-18.529 0V154m18.529-19.25h18.53m-18.53 0V154m18.53-19.25h18.529m-18.529 0V154m18.529-19.25h18.529m-18.529 0V154m18.529-19.25h18.53m-18.53 0V154m18.53-19.25h18.529m-18.529 0V154m18.529-19.25h18.53m-18.53 0V154m18.53-19.25H316m-18.529 0V154M316 134.75V154m-296.47 0H1m18.53 0h18.529m-18.53 0v19.25M1 154v19.25M38.059 154h18.53m-18.53 0v19.25M56.589 154h18.529m-18.53 0v19.25M75.118 154h18.53m-18.53 0v19.25M93.648 154h18.528m-18.529 0v19.25M112.176 154h18.53m-18.53 0v19.25m18.53-19.25h18.529m-18.529 0v19.25M149.235 154h18.53m-18.53 0v19.25m18.53-19.25h18.529m-18.529 0v19.25M186.294 154h18.53m-18.53 0v19.25m18.53-19.25h18.529m-18.529 0v19.25M223.353 154h18.529m-18.529 0v19.25M241.882 154h18.53m-18.53 0v19.25m18.53-19.25h18.529m-18.529 0v19.25M278.941 154h18.53m-18.53 0v19.25m18.53-19.25H316m-18.529 0v19.25M316 154v19.25m-296.47 0H1m18.53 0h18.529m-18.53 0v19.25M1 173.25v19.25m37.059-19.25h18.53m-18.53 0v19.25m18.53-19.25h18.529m-18.53 0v19.25m18.53-19.25h18.53m-18.53 0v19.25m18.53-19.25h18.528m-18.529 0v19.25m18.529-19.25h18.53m-18.53 0v19.25m18.53-19.25h18.529m-18.529 0v19.25m18.529-19.25h18.53m-18.53 0v19.25m18.53-19.25h18.529m-18.529 0v19.25m18.529-19.25h18.53m-18.53 0v19.25m18.53-19.25h18.529m-18.529 0v19.25m18.529-19.25h18.529m-18.529 0v19.25m18.529-19.25h18.53m-18.53 0v19.25m18.53-19.25h18.529m-18.529 0v19.25m18.529-19.25h18.53m-18.53 0v19.25m18.53-19.25H316m-18.529 0v19.25M316 173.25v19.25m-296.47 0H1m18.53 0h18.529m-18.53 0v19.25M1 192.5v19.25m37.059-19.25h18.53m-18.53 0v19.25m18.53-19.25h18.529m-18.53 0v19.25m18.53-19.25h18.53m-18.53 0v19.25m18.53-19.25h18.528m-18.529 0v19.25m18.529-19.25h18.53m-18.53 0v19.25m18.53-19.25h18.529m-18.529 0v19.25m18.529-19.25h18.53m-18.53 0v19.25m18.53-19.25h18.529m-18.529 0v19.25m18.529-19.25h18.53m-18.53 0v19.25m18.53-19.25h18.529m-18.529 0v19.25m18.529-19.25h18.529m-18.529 0v19.25m18.529-19.25h18.53m-18.53 0v19.25m18.53-19.25h18.529m-18.529 0v19.25m18.529-19.25h18.53m-18.53 0v19.25m18.53-19.25H316m-18.529 0v19.25M316 192.5v19.25m-296.47 0H1m18.53 0h18.529m-18.53 0V231M1 211.75V231h18.53m18.529-19.25h18.53m-18.53 0V231m18.53-19.25h18.529m-18.53 0V231m18.53-19.25h18.53m-18.53 0V231m18.53-19.25h18.528m-18.529 0V231m18.529-19.25h18.53m-18.53 0V231m18.53-19.25h18.529m-18.529 0V231m18.529-19.25h18.53m-18.53 0V231m18.53-19.25h18.529m-18.529 0V231m18.529-19.25h18.53m-18.53 0V231m18.53-19.25h18.529m-18.529 0V231m18.529-19.25h18.529m-18.529 0V231m18.529-19.25h18.53m-18.53 0V231m18.53-19.25h18.529m-18.529 0V231m18.529-19.25h18.53m-18.53 0V231m18.53-19.25H316m-18.529 0V231M316 211.75V231h-18.529m-277.942 0h18.53m0 0h18.53m0 0h18.529m0 0h18.53m0 0h18.528m0 0h18.53m0 0h18.529m0 0h18.53m0 0h18.529m0 0h18.53m0 0h18.529m0 0h18.529m0 0h18.53m0 0h18.529m0 0h18.53"/><defs><radialGradient id="a" cx="0" cy="0" r="1" gradientTransform="rotate(115.564 189.036 50.317)scale(364.985 527.689)" gradientUnits="userSpaceOnUse"><stop stop-color="#B5D3FD"/><stop offset=".884" stop-color="#B5D3FD" stop-opacity="0"/></radialGradient></defs></svg>