<svg xmlns="http://www.w3.org/2000/svg" width="281" height="160" fill="none"><g clip-path="url(#a)"><path stroke="url(#b)" stroke-dasharray="0.99 0.99" stroke-opacity=".15" d="M27.884 102.81V-61m17.195 163.81V-61m17.196 163.81V-61m17.196 163.81V-61m17.196 163.81V-61m17.195 163.81V-61m17.196 163.81V-61m17.196 163.81V-61m-17.196 172V-52.81m51.588 155.62V-61m17.195 163.81V-61m17.196 163.81V-61m17.196 163.81V-61m17.196 163.81V-61M270 76.873H10m260-17.064H10m260-17.063H10m260-17.064H10M270 8.62H10M270-8.444H10m260-17.064H10M270-42.57H10m260-17.064H10"/><g clip-path="url(#c)"><path fill="url(#d)" d="M98.5 164.189C36.105 143.198 6.83 23.733 9.634-15.325l-64.34 229.138L45.66 247.579c11.08-39.865 52.591-83.474 52.84-83.39"/><path stroke="url(#e)" stroke-opacity=".2" d="M9.634-15.325C6.829 23.733 36.105 143.198 98.5 164.19"/><path fill="url(#f)" d="M78.5 164.189C16.105 143.198-13.17 23.733-10.366-15.325l-64.34 229.138L25.66 247.579c11.08-39.865 52.591-83.474 52.84-83.39"/><path stroke="url(#g)" stroke-opacity=".2" d="M-10.366-15.325C-13.171 23.733 16.105 143.198 78.5 164.19"/></g><g clip-path="url(#h)"><path fill="url(#i)" d="M182.5 164.189c62.395-20.991 91.671-140.456 88.866-179.514l64.34 229.138-100.366 33.766c-11.08-39.865-52.592-83.474-52.84-83.39"/><path stroke="url(#j)" stroke-opacity=".2" d="M271.366-15.325c2.805 39.058-26.471 158.523-88.866 179.514"/><path fill="url(#k)" d="M202.5 164.189c62.395-20.991 91.671-140.456 88.866-179.514l64.34 229.138-100.366 33.766c-11.08-39.865-52.592-83.474-52.84-83.39"/><path stroke="url(#l)" stroke-opacity=".2" d="M291.366-15.325c2.805 39.058-26.471 158.523-88.866 179.514"/></g><g clip-path="url(#m)"><g filter="url(#n)"><path fill="url(#o)" fill-opacity=".2" d="M197 1v106H83V1z"/></g><rect width="1" height="34" x="157" y="1" fill="#3363FF" rx=".5" transform="rotate(90 157 1)"/></g></g><defs><linearGradient id="d" x1="84.5" x2="-19.483" y1="-21.345" y2="224.365" gradientUnits="userSpaceOnUse"><stop stop-color="#000733"/><stop offset=".74" stop-color="#000733" stop-opacity="0"/></linearGradient><linearGradient id="e" x1="8" x2="102.54" y1="-1.095" y2="156.988" gradientUnits="userSpaceOnUse"><stop stop-color="#003BFF"/><stop offset="1" stop-color="#003BFF" stop-opacity="0"/></linearGradient><linearGradient id="f" x1="39.817" x2="-35.975" y1="1.558" y2="226.843" gradientUnits="userSpaceOnUse"><stop stop-color="#000733"/><stop offset=".727" stop-color="#000733" stop-opacity="0"/></linearGradient><linearGradient id="g" x1="-12" x2="82.54" y1="-1.095" y2="156.988" gradientUnits="userSpaceOnUse"><stop stop-color="#003BFF"/><stop offset="1" stop-color="#003BFF" stop-opacity="0"/></linearGradient><linearGradient id="i" x1="196.5" x2="300.483" y1="-21.345" y2="224.365" gradientUnits="userSpaceOnUse"><stop stop-color="#000733"/><stop offset=".74" stop-color="#000733" stop-opacity="0"/></linearGradient><linearGradient id="j" x1="273" x2="178.46" y1="-1.095" y2="156.988" gradientUnits="userSpaceOnUse"><stop stop-color="#003BFF"/><stop offset="1" stop-color="#003BFF" stop-opacity="0"/></linearGradient><linearGradient id="k" x1="241.183" x2="316.975" y1="1.558" y2="226.843" gradientUnits="userSpaceOnUse"><stop stop-color="#000733"/><stop offset=".727" stop-color="#000733" stop-opacity="0"/></linearGradient><linearGradient id="l" x1="293" x2="198.46" y1="-1.095" y2="156.988" gradientUnits="userSpaceOnUse"><stop stop-color="#003BFF"/><stop offset="1" stop-color="#003BFF" stop-opacity="0"/></linearGradient><clipPath id="a"><rect width="280.5" height="160" fill="#fff" rx="20"/></clipPath><clipPath id="c"><path fill="#fff" d="M137 0H0v162h137z"/></clipPath><clipPath id="h"><path fill="#fff" d="M144 0h137v162H144z"/></clipPath><clipPath id="m"><path fill="#fff" d="M185 1v190H95V1z"/></clipPath><radialGradient id="b" cx="0" cy="0" r="1" gradientTransform="matrix(0 86 -130 0 140 25)" gradientUnits="userSpaceOnUse"><stop stop-color="#B5D3FD"/><stop offset="1" stop-color="#B5D3FD" stop-opacity="0"/></radialGradient><radialGradient id="o" cx="0" cy="0" r="1" gradientTransform="matrix(0 106.941 -52.6863 0 141.036 .06)" gradientUnits="userSpaceOnUse"><stop stop-color="#3363FF"/><stop offset="1" stop-color="#00020F" stop-opacity="0"/></radialGradient><filter id="n" width="134" height="126" x="73" y="-9" color-interpolation-filters="sRGB" filterUnits="userSpaceOnUse"><feFlood flood-opacity="0" result="BackgroundImageFix"/><feBlend in="SourceGraphic" in2="BackgroundImageFix" result="shape"/><feGaussianBlur result="effect1_foregroundBlur_2132_224561" stdDeviation="5"/></filter></defs></svg>