<svg xmlns="http://www.w3.org/2000/svg" width="1440" height="818" fill="none"><g clip-path="url(#a)"><g filter="url(#b)" style="mix-blend-mode:plus-lighter"><path fill="url(#c)" fill-opacity=".8" d="M997.687 1584.53a792.9 792.9 0 0 0 408.163-344.76 792.9 792.9 0 0 0 96.8-525.436 792.94 792.94 0 0 0-258.5-467.58 793 793 0 0 0-496.462-197.45A792.96 792.96 0 0 0-51.849 660.023 792.98 792.98 0 0 0 8.045 1190.94a792.97 792.97 0 0 0 383.106 372.4l2.701-5.92A786.452 786.452 0 0 1 747.461 55.813 786.44 786.44 0 0 1 1239.84 251.64a786.5 786.5 0 0 1 256.39 463.74 786.46 786.46 0 0 1-96.01 521.119 786.36 786.36 0 0 1-404.813 341.93z"/></g><path fill="url(#d)" d="M997.687 1584.53a792.9 792.9 0 0 0 408.163-344.76 792.9 792.9 0 0 0 96.8-525.436 792.94 792.94 0 0 0-258.5-467.58 793 793 0 0 0-496.462-197.45A792.96 792.96 0 0 0-51.849 660.023 792.98 792.98 0 0 0 8.045 1190.94a792.97 792.97 0 0 0 383.106 372.4l85.092-186.71a587.77 587.77 0 0 1-328.372-669.577 587.776 587.776 0 0 1 592.653-452.691 587.78 587.78 0 0 1 367.996 146.359 587.8 587.8 0 0 1 191.62 346.591 587.77 587.77 0 0 1-71.76 389.478 587.74 587.74 0 0 1-302.546 255.55z"/><g filter="url(#e)"><path fill="url(#f)" fill-opacity=".2" d="M997.687 1584.53a792.9 792.9 0 0 0 408.163-344.76 792.9 792.9 0 0 0 96.8-525.436 792.94 792.94 0 0 0-258.5-467.58 793 793 0 0 0-496.462-197.45A792.96 792.96 0 0 0-51.849 660.023 792.98 792.98 0 0 0 8.045 1190.94a792.97 792.97 0 0 0 383.106 372.4l62.577-137.3a642.1 642.1 0 0 1-310.205-301.54 642.1 642.1 0 0 1-48.497-429.891A642.07 642.07 0 0 1 1144.41 359.982a642.07 642.07 0 0 1 209.31 378.604 642 642 0 0 1-78.38 425.454c-74.56 128.48-191.35 227.14-330.494 279.15z"/></g><circle cx="720" cy="841.783" r="792.961" fill="url(#g)" fill-opacity=".01"/><path fill="url(#h)" fill-opacity=".2" d="M997.687 1584.53a792.9 792.9 0 0 0 408.163-344.76 792.9 792.9 0 0 0 96.8-525.436 792.94 792.94 0 0 0-258.5-467.58 793 793 0 0 0-496.462-197.45A792.96 792.96 0 0 0-51.849 660.023 792.98 792.98 0 0 0 8.045 1190.94a792.97 792.97 0 0 0 383.106 372.4l86.864-190.6a583.5 583.5 0 0 1-281.91-274.03 583.51 583.51 0 0 1 169.699-720.632 583.5 583.5 0 0 1 374.57-119.444 583.47 583.47 0 0 1 365.316 145.294 583.53 583.53 0 0 1 190.23 344.071 583.54 583.54 0 0 1-71.23 386.651 583.54 583.54 0 0 1-300.352 253.69z"/><circle cx="720" cy="841.783" r="792.272" stroke="url(#i)" stroke-opacity=".05" stroke-width="1.379"/><g filter="url(#j)"><circle cx="720" cy="841.783" r="791.582" stroke="url(#k)" stroke-opacity=".5" stroke-width="2.759"/></g><g filter="url(#l)"><circle cx="720" cy="841.783" r="792.272" stroke="url(#m)" stroke-opacity=".6" stroke-width="1.379"/></g><circle cx="720" cy="841.783" r="791.582" stroke="url(#n)" stroke-opacity=".2" stroke-width="2.759"/><circle cx="720" cy="841.783" r="792.272" stroke="url(#o)" stroke-opacity=".2" stroke-width="1.379" style="mix-blend-mode:plus-lighter"/><g filter="url(#p)" style="mix-blend-mode:plus-lighter"><circle cx="720" cy="841.783" r="791.582" stroke="url(#q)" stroke-opacity=".8" stroke-width="2.759"/></g><circle cx="720" cy="841.783" r="791.582" stroke="url(#r)" stroke-opacity=".2" stroke-width="2.759" style="mix-blend-mode:plus-lighter"/><g filter="url(#s)" style="mix-blend-mode:plus-lighter"><circle cx="720" cy="841.783" r="791.582" stroke="url(#t)" stroke-opacity=".6" stroke-width="2.759"/></g><g filter="url(#u)" style="mix-blend-mode:plus-lighter"><path fill="url(#v)" fill-opacity=".2" d="M997.687 1584.53a792.9 792.9 0 0 0 408.163-344.76 792.9 792.9 0 0 0 96.8-525.436 792.94 792.94 0 0 0-258.5-467.58 793 793 0 0 0-496.462-197.45A792.96 792.96 0 0 0-51.849 660.023 792.98 792.98 0 0 0 8.045 1190.94a792.97 792.97 0 0 0 383.106 372.4l7.401-16.24a775.1 775.1 0 0 1-374.485-364.02A775.12 775.12 0 0 1 747.065 67.139a775.1 775.1 0 0 1 485.285 193.006 775.08 775.08 0 0 1 252.69 457.057 775.18 775.18 0 0 1-94.62 513.618 775.17 775.17 0 0 1-398.982 337z"/></g><g filter="url(#w)"><path fill="url(#x)" fill-opacity=".5" d="M997.687 1584.53a792.9 792.9 0 0 0 408.163-344.76 792.9 792.9 0 0 0 96.8-525.436 792.94 792.94 0 0 0-258.5-467.58 793 793 0 0 0-496.462-197.45A792.96 792.96 0 0 0-51.849 660.023 792.98 792.98 0 0 0 8.045 1190.94a792.97 792.97 0 0 0 383.106 372.4l61.736-135.46a644.1 644.1 0 0 1-311.186-302.49 644.1 644.1 0 0 1 187.322-795.466 644.104 644.104 0 0 1 816.727 28.536 644.08 644.08 0 0 1 209.97 379.8 644.1 644.1 0 0 1-78.62 426.8 644.2 644.2 0 0 1-331.543 280.04z" style="mix-blend-mode:plus-lighter"/></g><g filter="url(#y)" style="mix-blend-mode:plus-lighter"><path fill="url(#z)" fill-opacity=".5" d="M997.687 1584.53a792.9 792.9 0 0 0 408.163-344.76 792.9 792.9 0 0 0 96.8-525.436 792.94 792.94 0 0 0-258.5-467.58 793 793 0 0 0-496.462-197.45A792.96 792.96 0 0 0-51.849 660.023 792.98 792.98 0 0 0 8.045 1190.94a792.97 792.97 0 0 0 383.106 372.4l28.837-63.27A723.43 723.43 0 0 1 280.869 266.882 723.427 723.427 0 1 1 973.337 1519.4z"/></g><g filter="url(#A)"><path fill="url(#B)" fill-opacity=".5" d="M997.687 1584.53a792.9 792.9 0 0 0 408.163-344.76 792.9 792.9 0 0 0 96.8-525.436 792.94 792.94 0 0 0-258.5-467.58 793 793 0 0 0-496.462-197.45A792.96 792.96 0 0 0-51.849 660.023 792.98 792.98 0 0 0 8.045 1190.94a792.97 792.97 0 0 0 383.106 372.4l7.413-16.26a775.1 775.1 0 0 1-374.471-364.01A775.09 775.09 0 0 1 747.064 67.168a775.08 775.08 0 0 1 485.266 192.999 775.08 775.08 0 0 1 158.06 970.633c-90 155.1-231 274.19-398.962 336.99z"/></g><g filter="url(#C)"><path fill="url(#D)" fill-opacity=".5" d="M997.687 1584.53a792.9 792.9 0 0 0 408.163-344.76 792.9 792.9 0 0 0 96.8-525.436 792.94 792.94 0 0 0-258.5-467.58 793 793 0 0 0-496.462-197.45A792.96 792.96 0 0 0-51.849 660.023 792.98 792.98 0 0 0 8.045 1190.94a792.97 792.97 0 0 0 383.106 372.4l7.413-16.26a775.1 775.1 0 0 1-374.471-364.01A775.09 775.09 0 0 1 747.064 67.168a775.08 775.08 0 0 1 485.266 192.999 775.08 775.08 0 0 1 158.06 970.633c-90 155.1-231 274.19-398.962 336.99z"/></g><g filter="url(#E)" style="mix-blend-mode:plus-lighter"><path fill="url(#F)" fill-opacity=".8" d="M997.687 1584.53a792.9 792.9 0 0 0 408.163-344.76 792.9 792.9 0 0 0 96.8-525.436 792.94 792.94 0 0 0-258.5-467.58 793 793 0 0 0-496.462-197.45A792.96 792.96 0 0 0-51.849 660.023 792.98 792.98 0 0 0 8.045 1190.94a792.97 792.97 0 0 0 383.106 372.4l2.701-5.92A786.452 786.452 0 0 1 747.461 55.813 786.44 786.44 0 0 1 1239.84 251.64a786.5 786.5 0 0 1 256.39 463.74 786.46 786.46 0 0 1-96.01 521.119 786.36 786.36 0 0 1-404.813 341.93z"/></g><g filter="url(#G)" style="mix-blend-mode:plus-lighter"><path fill="url(#H)" fill-opacity=".8" d="M997.687 1584.53a792.9 792.9 0 0 0 408.163-344.76 792.9 792.9 0 0 0 96.8-525.436 792.94 792.94 0 0 0-258.5-467.58 793 793 0 0 0-496.462-197.45A792.96 792.96 0 0 0-51.849 660.023 792.98 792.98 0 0 0 8.045 1190.94a792.97 792.97 0 0 0 383.106 372.4l2.701-5.92A786.452 786.452 0 0 1 747.461 55.813 786.44 786.44 0 0 1 1239.84 251.64a786.5 786.5 0 0 1 256.39 463.74 786.46 786.46 0 0 1-96.01 521.119 786.36 786.36 0 0 1-404.813 341.93z"/></g><path fill="url(#I)" d="M-154.917 436.266h1749.83v381.268h-1749.83z"/><path fill="url(#J)" d="M-154.917 436.266h1749.83v381.268h-1749.83z"/><g filter="url(#K)" style="mix-blend-mode:plus-lighter"><circle cx="720" cy="841.783" r="792.381" stroke="url(#L)" stroke-opacity=".6" stroke-width="1.161"/></g><g filter="url(#M)" style="mix-blend-mode:plus-lighter"><path fill="url(#N)" fill-opacity=".5" d="M999.703 1589.92a798.7 798.7 0 0 0 411.127-347.26 798.72 798.72 0 0 0-162.88-1000.224 798.714 798.714 0 0 0-1012.783-35.385A798.714 798.714 0 0 0 2.877 1193.47a798.7 798.7 0 0 0 385.888 375.11l7.798-17.11a779.94 779.94 0 0 1-376.802-366.28 779.91 779.91 0 0 1 226.82-963.196 779.91 779.91 0 0 1 988.939 34.552 779.9 779.9 0 0 1 254.25 459.886c29 178.091-4.64 360.728-95.21 516.788a779.9 779.9 0 0 1-401.442 339.09z"/></g><g filter="url(#O)" style="mix-blend-mode:plus-lighter"><path fill="url(#P)" fill-opacity=".5" d="M1001.59 1594.97a804.15 804.15 0 0 0 413.9-349.6 804.13 804.13 0 0 0 98.16-532.826A804.11 804.11 0 0 0 748.077 38.17a804.103 804.103 0 0 0-361.546 1535.31l12.913-28.33a773 773 0 0 1-373.445-363.02A772.963 772.963 0 0 1 746.99 69.29a772.968 772.968 0 0 1 641.57 1160.45 772.98 772.98 0 0 1-397.875 336.06z"/></g><circle cx="720" cy="841.784" r="578.812" fill="#00020F"/></g><defs><filter id="b" width="1602.18" height="1551.97" x="-81.091" y="40.692" color-interpolation-filters="sRGB" filterUnits="userSpaceOnUse"><feFlood flood-opacity="0" result="BackgroundImageFix"/><feBlend in="SourceGraphic" in2="BackgroundImageFix" result="shape"/><feGaussianBlur result="effect1_foregroundBlur_3056_1919" stdDeviation="4.065"/></filter><filter id="e" width="1641.1" height="1590.89" x="-100.551" y="21.233" color-interpolation-filters="sRGB" filterUnits="userSpaceOnUse"><feFlood flood-opacity="0" result="BackgroundImageFix"/><feBlend in="SourceGraphic" in2="BackgroundImageFix" result="shape"/><feGaussianBlur result="effect1_foregroundBlur_3056_1919" stdDeviation="13.794"/></filter><filter id="j" width="1641.1" height="1641.1" x="-100.55" y="21.233" color-interpolation-filters="sRGB" filterUnits="userSpaceOnUse"><feFlood flood-opacity="0" result="BackgroundImageFix"/><feBlend in="SourceGraphic" in2="BackgroundImageFix" result="shape"/><feGaussianBlur result="effect1_foregroundBlur_3056_1919" stdDeviation="13.794"/></filter><filter id="l" width="1683.86" height="1683.86" x="-121.932" y="-.149" color-interpolation-filters="sRGB" filterUnits="userSpaceOnUse"><feFlood flood-opacity="0" result="BackgroundImageFix"/><feBlend in="SourceGraphic" in2="BackgroundImageFix" result="shape"/><feGaussianBlur result="effect1_foregroundBlur_3056_1919" stdDeviation="24.485"/></filter><filter id="p" width="1654.89" height="1654.89" x="-107.447" y="14.335" color-interpolation-filters="sRGB" filterUnits="userSpaceOnUse"><feFlood flood-opacity="0" result="BackgroundImageFix"/><feBlend in="SourceGraphic" in2="BackgroundImageFix" result="shape"/><feGaussianBlur result="effect1_foregroundBlur_3056_1919" stdDeviation="17.243"/></filter><filter id="s" width="1596.96" height="1596.96" x="-78.479" y="43.303" color-interpolation-filters="sRGB" filterUnits="userSpaceOnUse"><feFlood flood-opacity="0" result="BackgroundImageFix"/><feBlend in="SourceGraphic" in2="BackgroundImageFix" result="shape"/><feGaussianBlur result="effect1_foregroundBlur_3056_1919" stdDeviation="2.759"/></filter><filter id="u" width="1626.2" height="1575.99" x="-93.102" y="28.681" color-interpolation-filters="sRGB" filterUnits="userSpaceOnUse"><feFlood flood-opacity="0" result="BackgroundImageFix"/><feBlend in="SourceGraphic" in2="BackgroundImageFix" result="shape"/><feGaussianBlur result="effect1_foregroundBlur_3056_1919" stdDeviation="10.07"/></filter><filter id="w" width="1599.72" height="1549.51" x="-79.859" y="41.924" color-interpolation-filters="sRGB" filterUnits="userSpaceOnUse"><feFlood flood-opacity="0" result="BackgroundImageFix"/><feBlend in="SourceGraphic" in2="BackgroundImageFix" result="shape"/><feGaussianBlur result="effect1_foregroundBlur_3056_1919" stdDeviation="3.449"/></filter><filter id="y" width="1703.91" height="1653.7" x="-131.957" y="-10.173" color-interpolation-filters="sRGB" filterUnits="userSpaceOnUse"><feFlood flood-opacity="0" result="BackgroundImageFix"/><feBlend in="SourceGraphic" in2="BackgroundImageFix" result="shape"/><feGaussianBlur result="effect1_foregroundBlur_3056_1919" stdDeviation="29.497"/></filter><filter id="A" width="1599.72" height="1549.51" x="-79.859" y="41.924" color-interpolation-filters="sRGB" filterUnits="userSpaceOnUse"><feFlood flood-opacity="0" result="BackgroundImageFix"/><feBlend in="SourceGraphic" in2="BackgroundImageFix" result="shape"/><feGaussianBlur result="effect1_foregroundBlur_3056_1919" stdDeviation="3.449"/></filter><filter id="C" width="1599.72" height="1549.51" x="-79.859" y="41.924" color-interpolation-filters="sRGB" filterUnits="userSpaceOnUse"><feFlood flood-opacity="0" result="BackgroundImageFix"/><feBlend in="SourceGraphic" in2="BackgroundImageFix" result="shape"/><feGaussianBlur result="effect1_foregroundBlur_3056_1919" stdDeviation="3.449"/></filter><filter id="E" width="1720.17" height="1669.96" x="-140.086" y="-18.302" color-interpolation-filters="sRGB" filterUnits="userSpaceOnUse"><feFlood flood-opacity="0" result="BackgroundImageFix"/><feBlend in="SourceGraphic" in2="BackgroundImageFix" result="shape"/><feGaussianBlur result="effect1_foregroundBlur_3056_1919" stdDeviation="33.562"/></filter><filter id="G" width="1658.86" height="1608.64" x="-109.427" y="12.356" color-interpolation-filters="sRGB" filterUnits="userSpaceOnUse"><feFlood flood-opacity="0" result="BackgroundImageFix"/><feBlend in="SourceGraphic" in2="BackgroundImageFix" result="shape"/><feGaussianBlur result="effect1_foregroundBlur_3056_1919" stdDeviation="18.233"/></filter><filter id="K" width="1596.96" height="1596.96" x="-78.479" y="43.303" color-interpolation-filters="sRGB" filterUnits="userSpaceOnUse"><feFlood flood-opacity="0" result="BackgroundImageFix"/><feBlend in="SourceGraphic" in2="BackgroundImageFix" result="shape"/><feGaussianBlur result="effect1_foregroundBlur_3056_1919" stdDeviation="2.759"/></filter><filter id="M" width="1620.66" height="1570.08" x="-90.331" y="31.453" color-interpolation-filters="sRGB" filterUnits="userSpaceOnUse"><feFlood flood-opacity="0" result="BackgroundImageFix"/><feBlend in="SourceGraphic" in2="BackgroundImageFix" result="shape"/><feGaussianBlur result="effect1_foregroundBlur_3056_1919" stdDeviation="5.807"/></filter><filter id="O" width="1840.47" height="1789.55" x="-200.236" y="-78.451" color-interpolation-filters="sRGB" filterUnits="userSpaceOnUse"><feFlood flood-opacity="0" result="BackgroundImageFix"/><feGaussianBlur in="BackgroundImageFix" stdDeviation="58.065"/><feComposite in2="SourceAlpha" operator="in" result="effect1_backgroundBlur_3056_1919"/><feBlend in="SourceGraphic" in2="effect1_backgroundBlur_3056_1919" result="shape"/><feGaussianBlur result="effect2_foregroundBlur_3056_1919" stdDeviation="29.497"/></filter><radialGradient id="f" cx="0" cy="0" r="1" gradientTransform="matrix(0 1917.42 -6160.47 0 720 -282.671)" gradientUnits="userSpaceOnUse"><stop stop-color="#003BFF"/><stop offset=".276" stop-color="#003BFF" stop-opacity="0"/></radialGradient><radialGradient id="g" cx="0" cy="0" r="1" gradientTransform="rotate(90 335.59 384.41)scale(1585.92)" gradientUnits="userSpaceOnUse"><stop stop-color="#fff"/><stop offset=".825" stop-color="#fff" stop-opacity="0"/></radialGradient><radialGradient id="h" cx="0" cy="0" r="1" gradientTransform="matrix(0 1917.42 -6160.47 0 720 -282.671)" gradientUnits="userSpaceOnUse"><stop stop-color="#003BFF"/><stop offset=".24" stop-color="#003BFF" stop-opacity="0"/></radialGradient><radialGradient id="i" cx="0" cy="0" r="1" gradientTransform="rotate(90 335.59 384.41)scale(1585.92)" gradientUnits="userSpaceOnUse"><stop stop-color="#fff"/><stop offset=".484" stop-color="#fff" stop-opacity="0"/></radialGradient><radialGradient id="k" cx="0" cy="0" r="1" gradientTransform="rotate(90 335.59 384.41)scale(1585.92)" gradientUnits="userSpaceOnUse"><stop stop-color="#1A4FFF"/><stop offset=".543" stop-color="#1A4FFF" stop-opacity="0"/></radialGradient><radialGradient id="m" cx="0" cy="0" r="1" gradientTransform="rotate(90 335.59 384.41)scale(1585.92)" gradientUnits="userSpaceOnUse"><stop stop-color="#B3C4FF"/><stop offset=".543" stop-color="#B2C4FF" stop-opacity="0"/></radialGradient><radialGradient id="n" cx="0" cy="0" r="1" gradientTransform="rotate(90 335.59 384.41)scale(1585.92)" gradientUnits="userSpaceOnUse"><stop stop-color="#1A4FFF"/><stop offset=".484" stop-color="#1A4FFF" stop-opacity="0"/></radialGradient><radialGradient id="o" cx="0" cy="0" r="1" gradientTransform="rotate(90 335.59 384.41)scale(1585.92)" gradientUnits="userSpaceOnUse"><stop stop-color="#99B1FF"/><stop offset=".161" stop-color="#99B1FF" stop-opacity="0"/></radialGradient><radialGradient id="q" cx="0" cy="0" r="1" gradientTransform="rotate(90 335.59 384.41)scale(1585.92)" gradientUnits="userSpaceOnUse"><stop stop-color="#E6EBFF"/><stop offset=".353" stop-color="#00020F" stop-opacity="0"/></radialGradient><radialGradient id="r" cx="0" cy="0" r="1" gradientTransform="rotate(90 335.59 384.41)scale(1585.92)" gradientUnits="userSpaceOnUse"><stop stop-color="#B3C4FF"/><stop offset=".161" stop-color="#00020F" stop-opacity="0"/></radialGradient><radialGradient id="t" cx="0" cy="0" r="1" gradientTransform="rotate(90 335.59 384.41)scale(1585.92)" gradientUnits="userSpaceOnUse"><stop stop-color="#B3C4FF"/><stop offset=".28" stop-color="#00020F" stop-opacity="0"/></radialGradient><radialGradient id="v" cx="0" cy="0" r="1" gradientTransform="matrix(0 1917.42 -6160.47 0 720 -282.671)" gradientUnits="userSpaceOnUse"><stop stop-color="#fff"/><stop offset=".276" stop-color="#fff" stop-opacity="0"/></radialGradient><radialGradient id="B" cx="0" cy="0" r="1" gradientTransform="matrix(19.05514 -611.44315 1045.1426 32.57104 720.004 660.264)" gradientUnits="userSpaceOnUse"><stop offset=".729" stop-color="#fff" stop-opacity="0"/><stop offset="1" stop-color="#fff" stop-opacity=".02"/></radialGradient><radialGradient id="D" cx="0" cy="0" r="1" gradientTransform="rotate(-88.823 858.263 120.654)scale(927.632)" gradientUnits="userSpaceOnUse"><stop offset=".893" stop-color="#fff" stop-opacity="0"/><stop offset="1" stop-color="#fff" stop-opacity=".02"/></radialGradient><radialGradient id="L" cx="0" cy="0" r="1" gradientTransform="rotate(90 335.59 384.41)scale(1585.92)" gradientUnits="userSpaceOnUse"><stop stop-color="#B3C4FF"/><stop offset=".28" stop-color="#00020F" stop-opacity="0"/></radialGradient><linearGradient id="c" x1="720" x2="720" y1="668.214" y2="48.821" gradientUnits="userSpaceOnUse"><stop offset=".768" stop-color="#99B1FF" stop-opacity="0"/><stop offset="1" stop-color="#194FFF"/></linearGradient><linearGradient id="d" x1="720" x2="720" y1="-2966.04" y2="945.153" gradientUnits="userSpaceOnUse"><stop stop-color="#4D76FF"/><stop offset=".829" stop-color="#003BFF" stop-opacity="0"/></linearGradient><linearGradient id="x" x1="720" x2="720" y1="-468.917" y2="945.153" gradientUnits="userSpaceOnUse"><stop stop-color="#E6EBFF"/><stop offset=".403" stop-color="#003BFF" stop-opacity="0"/></linearGradient><linearGradient id="z" x1="720" x2="720" y1="-157.781" y2="945.153" gradientUnits="userSpaceOnUse"><stop offset=".095" stop-color="#99B1FF"/><stop offset=".309" stop-color="#003BFF" stop-opacity="0"/></linearGradient><linearGradient id="F" x1="720" x2="720" y1="668.214" y2="48.821" gradientUnits="userSpaceOnUse"><stop offset=".768" stop-color="#99B1FF" stop-opacity="0"/><stop offset="1" stop-color="#194FFF"/></linearGradient><linearGradient id="H" x1="720" x2="720" y1="668.214" y2="48.821" gradientUnits="userSpaceOnUse"><stop offset=".768" stop-color="#99B1FF" stop-opacity="0"/><stop offset="1" stop-color="#194FFF"/></linearGradient><linearGradient id="I" x1="720" x2="720" y1="436.266" y2="817.534" gradientUnits="userSpaceOnUse"><stop stop-color="#00020F" stop-opacity="0"/><stop offset="1" stop-color="#00020F"/></linearGradient><linearGradient id="J" x1="720" x2="720" y1="436.266" y2="817.534" gradientUnits="userSpaceOnUse"><stop stop-color="#00020F" stop-opacity="0"/><stop offset="1" stop-color="#00020F"/></linearGradient><linearGradient id="N" x1="720" x2="720" y1="-165.036" y2="945.903" gradientUnits="userSpaceOnUse"><stop offset=".095" stop-color="#fff"/><stop offset=".25" stop-color="#fff" stop-opacity="0"/></linearGradient><linearGradient id="P" x1="720" x2="720" y1="-171.826" y2="946.606" gradientUnits="userSpaceOnUse"><stop offset=".095" stop-color="#99B1FF"/><stop offset=".309" stop-color="#003BFF" stop-opacity="0"/></linearGradient><clipPath id="a"><path fill="#fff" d="M-154.565.905h1749.13v816.63h-1749.13z"/></clipPath></defs></svg>